<svg width="196" height="44" viewBox="0 0 196 44" fill="none" xmlns="http://www.w3.org/2000/svg">
<path d="M12.3067 36.0694L14.4882 31.8701L16.9422 34.0502L12.3067 36.0694Z" fill="#1F3326" style="fill:#1F3326;fill:color(display-p3 0.1216 0.2000 0.1490);fill-opacity:1;"/>
<path d="M49.665 29.9428C49.3481 30.133 48.9677 30.3548 48.5241 30.6084C48.0804 30.8619 47.6208 31.0838 47.1454 31.2739C46.67 31.4641 46.1947 31.6067 45.7193 31.7018C45.2439 31.7651 44.816 31.7334 44.4357 31.6067C44.2139 31.6067 43.9762 31.4324 43.7227 31.0838C43.4691 30.7351 43.3107 30.4816 43.2473 30.3231C43.1205 30.133 42.9937 29.8953 42.867 29.6101C42.7402 29.2931 42.6927 29.0238 42.7244 28.8019C42.7244 28.6751 42.867 28.4216 43.1522 28.0413C43.4374 27.661 43.7544 27.2648 44.103 26.8528C44.4833 26.4408 44.8319 26.0605 45.1488 25.7119C45.4974 25.3633 45.7351 25.1256 45.8619 24.9988C45.957 24.9037 46.1788 24.6819 46.5274 24.3333C46.876 23.953 47.2564 23.5727 47.6684 23.1924C48.0804 22.7804 48.4607 22.4159 48.8093 22.099C49.1579 21.782 49.3797 21.6236 49.4748 21.6236C49.6333 21.6236 49.8393 21.7504 50.0928 22.0039C50.3781 22.2257 50.5682 22.3842 50.6633 22.4793C50.7901 22.6061 50.9644 22.8279 51.1862 23.1448C51.4397 23.4301 51.5348 23.6519 51.4714 23.8104V23.9054C51.4081 24.0322 51.313 24.1431 51.1862 24.2382C51.0594 24.3016 50.9485 24.3808 50.8534 24.4759C50.5999 24.7294 50.3622 24.9671 50.1404 25.189C49.9185 25.4108 49.6967 25.6485 49.4748 25.9021L47.1454 28.6118L46.0045 29.8953C47.1137 29.7368 48.0487 29.3565 48.8093 28.7544C49.5699 28.1205 50.3147 27.4074 51.0436 26.6151C51.4556 26.1081 51.9468 25.5693 52.5173 24.9988C52.6124 24.9037 52.8342 24.6819 53.1828 24.3333C53.5314 23.953 53.8959 23.5727 54.2762 23.1924C54.6882 22.7804 55.0685 22.4159 55.4171 22.099C55.7658 21.782 55.9876 21.6236 56.0827 21.6236C56.2411 21.6236 56.4471 21.7504 56.7007 22.0039C56.9859 22.2257 57.1761 22.3842 57.2711 22.4793C57.3662 22.6061 57.5247 22.8279 57.7465 23.1448C58.0001 23.4301 58.0951 23.6519 58.0318 23.8104V23.9054C57.9684 24.0322 57.8733 24.1431 57.7465 24.2382C57.6514 24.3016 57.5564 24.3808 57.4613 24.4759C57.2078 24.7294 56.9701 24.9671 56.7482 25.189C56.5264 25.4108 56.2887 25.6485 56.0351 25.9021L53.8008 28.6118L52.6599 29.8953C53.0402 29.8319 53.4839 29.7051 53.991 29.515C54.4981 29.2931 55.0051 29.0713 55.5122 28.8494C56.0193 28.5959 56.4947 28.3424 56.9384 28.0888C57.4138 27.8036 57.8099 27.5659 58.1268 27.3757C58.5071 27.1539 58.729 27.0747 58.7924 27.1381C58.8558 27.2014 59.0301 27.3599 59.3153 27.6134C59.3153 27.6451 59.2836 27.7402 59.2202 27.8987L58.7924 28.1839C58.3804 28.5008 57.8416 28.897 57.1761 29.3724C56.5422 29.8161 55.8608 30.2439 55.1319 30.6559C54.403 31.0362 53.6741 31.3373 52.9451 31.5591C52.2162 31.781 51.5982 31.7968 51.0911 31.6067C50.9644 31.6067 50.8217 31.5433 50.6633 31.4165C50.5365 31.2898 50.4097 31.1471 50.283 30.9887C50.1562 30.7985 50.0294 30.6084 49.9027 30.4182C49.8076 30.2281 49.7284 30.0696 49.665 29.9428Z" fill="#1F3326" style="fill:#1F3326;fill:color(display-p3 0.1216 0.2000 0.1490);fill-opacity:1;"/>
<path d="M66.7871 28.4216C66.8821 28.3265 67.0564 28.1205 67.31 27.8036C67.5635 27.4867 67.8171 27.1381 68.0706 26.7577C68.3241 26.3457 68.5618 25.9337 68.7837 25.5217C69.0372 25.1097 69.1957 24.7611 69.2591 24.4759C69.3224 24.159 69.2749 23.9371 69.1164 23.8104C68.958 23.6519 68.6411 23.6361 68.1657 23.7628C68.0389 23.953 67.8329 24.2699 67.5477 24.7136C67.2941 25.1256 67.0564 25.5693 66.8346 26.0447C66.6444 26.4884 66.5177 26.9321 66.4543 27.3757C66.3909 27.8194 66.5018 28.1681 66.7871 28.4216ZM65.9314 29.2298C65.5511 28.7544 65.3609 28.2314 65.3609 27.661C65.3609 27.0905 65.4401 26.5359 65.5986 25.9971C65.2817 26.4408 64.9806 26.9004 64.6954 27.3757C64.4101 27.8194 64.1566 28.279 63.9347 28.7544C63.8714 28.8811 63.7921 29.0554 63.6971 29.2773C63.6337 29.4991 63.6812 29.6734 63.8397 29.8002C64.0298 29.9587 64.2992 29.9904 64.6478 29.8953C64.9964 29.7685 65.25 29.6576 65.4084 29.5625C65.5035 29.4991 65.5986 29.4516 65.6937 29.4199C65.7887 29.3565 65.868 29.2931 65.9314 29.2298ZM70.9704 24.0481C71.0338 24.2065 70.9863 24.4601 70.8278 24.8087C70.6377 25.2841 70.3683 25.7911 70.0197 26.3299C69.7028 26.837 69.3541 27.3282 68.9738 27.8036C68.6252 28.279 68.3558 28.5959 68.1657 28.7544C68.5143 28.7227 68.8471 28.6593 69.164 28.5642C69.4809 28.4691 69.782 28.3424 70.0672 28.1839C70.3208 28.0254 70.5584 27.8828 70.7803 27.7561C71.0338 27.6293 71.2715 27.5025 71.4934 27.3757C71.842 27.1539 72.048 27.0747 72.1114 27.1381C72.1748 27.2014 72.3491 27.3599 72.6343 27.6134C72.6977 27.6768 72.666 27.7719 72.5392 27.8987L72.1114 28.1839C71.7628 28.4691 71.3824 28.7702 70.9704 29.0871C70.5901 29.3724 70.1781 29.6259 69.7344 29.8478C69.3224 30.0379 68.8787 30.1647 68.4034 30.2281C67.928 30.2914 67.4526 30.2122 66.9772 29.9904C66.692 30.2439 66.3434 30.5291 65.9314 30.8461C65.5511 31.163 65.1391 31.4165 64.6954 31.6067C64.2834 31.7651 63.8555 31.8127 63.4118 31.7493C62.9998 31.6859 62.6354 31.4165 62.3184 30.9411L61.1775 29.2773C60.8923 28.8653 60.7972 28.4057 60.8923 27.8987C61.019 27.3599 61.225 26.837 61.5103 26.3299C61.7955 25.8228 62.1283 25.3474 62.5086 24.9037C62.8889 24.4601 63.2217 24.1114 63.5069 23.8579C63.9189 23.4459 64.3467 23.0656 64.7904 22.717C65.2341 22.3367 65.7095 22.0197 66.2166 21.7662C66.5652 21.6077 66.9455 21.4493 67.3575 21.2908C67.6744 21.1957 67.9755 21.1799 68.2607 21.2433C68.0389 20.6728 67.8329 20.0865 67.6427 19.4844C67.3575 18.5653 67.0723 17.6462 66.7871 16.7271C66.5018 15.808 66.2166 14.889 65.9314 13.9699C65.868 13.8748 65.8997 13.7797 66.0264 13.6847C66.4067 13.6213 66.7554 13.5737 67.0723 13.542C67.3892 13.5103 67.7854 13.4945 68.2607 13.4945C68.7361 13.4628 69.2432 13.447 69.782 13.447C70.3208 13.447 70.812 13.4628 71.2557 13.4945C71.7311 13.4945 72.1272 13.5103 72.4441 13.542C72.7928 13.5737 72.9829 13.6054 73.0146 13.6371C73.078 13.7005 73.1572 13.8431 73.2523 14.065C73.3474 14.2551 73.4266 14.477 73.49 14.7305C73.5851 14.9523 73.6643 15.1742 73.7277 15.396C73.7911 15.6179 73.8228 15.7763 73.8228 15.8714V16.014C73.4424 15.9507 73.078 15.919 72.7294 15.919C72.3808 15.8873 72.0321 15.8556 71.6835 15.8239L69.6394 15.8714L68.0706 15.919C68.3875 16.8697 68.7203 17.8047 69.0689 18.7237C69.6394 20.34 70.2098 21.9881 70.7803 23.6677C70.7803 23.6994 70.8437 23.7787 70.9704 23.9054V24.0481Z" fill="#1F3326" style="fill:#1F3326;fill:color(display-p3 0.1216 0.2000 0.1490);fill-opacity:1;"/>
<path d="M80.8188 25.2365L85.5251 22.3842C85.7469 22.2574 86.0322 22.2733 86.3808 22.4317C86.7294 22.5585 87.0622 22.7645 87.3791 23.0497C87.7277 23.3033 87.9971 23.5727 88.1872 23.8579C88.4091 24.1431 88.5042 24.3491 88.4725 24.4759C88.4725 24.5076 88.3932 24.6185 88.2348 24.8087C88.0763 24.9988 87.902 25.2207 87.7118 25.4742C87.5217 25.6961 87.3315 25.9179 87.1414 26.1397C86.9829 26.3616 86.872 26.5042 86.8086 26.5676C86.3015 27.0747 85.8103 27.5976 85.3349 28.1364C84.8912 28.6434 84.4 29.1347 83.8612 29.6101C83.9246 29.8319 84.1148 29.9428 84.4317 29.9428C84.7486 29.9111 85.1289 29.8319 85.5726 29.7051C86.048 29.5467 86.5392 29.3565 87.0463 29.1347C87.5534 28.9128 88.0288 28.691 88.4725 28.4691C88.9478 28.2156 89.3598 27.9938 89.7085 27.8036C90.0571 27.5817 90.2948 27.4391 90.4215 27.3757C90.7702 27.1539 90.9762 27.0747 91.0395 27.1381C91.1029 27.2014 91.2772 27.3599 91.5625 27.6134C91.6258 27.6768 91.6258 27.7244 91.5625 27.7561C91.5308 27.7878 91.5149 27.8353 91.5149 27.8987L91.0871 28.1839C90.2631 28.7861 89.3915 29.4041 88.4725 30.0379C87.5851 30.6401 86.6502 31.0996 85.6677 31.4165C85.0338 31.6067 84.3683 31.7334 83.6711 31.7968C83.0055 31.8285 82.34 31.8444 81.6745 31.8444C81.6428 31.8444 81.5318 31.8602 81.3417 31.8919C81.1515 31.9236 80.9455 31.9394 80.7237 31.9394C80.5018 31.9394 80.2958 31.9394 80.1057 31.9394C79.9472 31.9394 79.868 31.9236 79.868 31.8919L79.2975 30.0379C79.2975 29.9745 79.4243 29.9111 79.6778 29.8478C79.9631 29.7527 80.1374 29.6893 80.2008 29.6576C80.4543 29.5308 80.6761 29.4041 80.8663 29.2773C81.0881 29.1505 81.31 28.9921 81.5318 28.8019C81.8488 28.5484 82.1498 28.2631 82.4351 27.9462C82.7203 27.5976 82.9897 27.249 83.2432 26.9004C83.37 26.7102 83.5126 26.4725 83.6711 26.1873C83.8295 25.8704 83.8771 25.5851 83.8137 25.3316L75.7797 30.2281L75.5895 30.4182L69.8849 36.7408L67.0326 40.4013C66.9692 40.433 66.9375 40.433 66.9375 40.4013C66.9058 40.3696 66.8741 40.3538 66.8424 40.3538C66.684 40.2904 66.5255 40.1319 66.367 39.8784C66.1769 39.6248 66.0026 39.3555 65.8441 39.0702C65.654 38.785 65.5114 38.4998 65.4163 38.2145C65.2895 37.8976 65.2261 37.6599 65.2261 37.5015C65.2261 37.3747 65.5747 36.8993 66.272 36.0753C66.9692 35.2513 67.8407 34.253 68.8866 33.0804C69.9007 31.9078 71.0258 30.6559 72.2618 29.3248C73.4978 27.9621 74.6388 26.7102 75.6846 25.5693C76.7621 24.4284 77.6654 23.4934 78.3943 22.7645C79.1232 22.0039 79.5194 21.6236 79.5828 21.6236C79.6778 21.6236 79.9155 21.7187 80.2958 21.9088C80.7078 22.0673 81.1198 22.2574 81.5318 22.4793C81.9438 22.7011 82.2925 22.923 82.5777 23.1448C82.8629 23.335 82.958 23.4776 82.8629 23.5727C82.5143 23.8262 82.1657 24.0956 81.8171 24.3808C81.5001 24.6344 81.1674 24.9196 80.8188 25.2365Z" fill="#1F3326" style="fill:#1F3326;fill:color(display-p3 0.1216 0.2000 0.1490);fill-opacity:1;"/>
<path d="M99.3235 29.9428C99.0066 30.133 98.6263 30.3548 98.1826 30.6084C97.7389 30.8619 97.2794 31.0838 96.804 31.2739C96.3286 31.4641 95.8532 31.6067 95.3778 31.7018C94.9025 31.7651 94.4746 31.7334 94.0943 31.6067C93.8725 31.6067 93.6348 31.4324 93.3812 31.0838C93.1277 30.7351 92.9692 30.4816 92.9058 30.3231C92.7791 30.133 92.6523 29.8953 92.5255 29.6101C92.3988 29.2931 92.3512 29.0238 92.3829 28.8019C92.3829 28.6751 92.5255 28.4216 92.8108 28.0413C93.096 27.661 93.4129 27.2648 93.7615 26.8528C94.1418 26.4408 94.4905 26.0605 94.8074 25.7119C95.156 25.3633 95.3937 25.1256 95.5205 24.9988C95.6155 24.9037 95.8374 24.6819 96.186 24.3333C96.5346 23.953 96.9149 23.5727 97.3269 23.1924C97.7389 22.7804 98.1192 22.4159 98.4678 22.099C98.8165 21.782 99.0383 21.6236 99.1334 21.6236C99.2919 21.6236 99.4978 21.7504 99.7514 22.0039C100.037 22.2257 100.227 22.3842 100.322 22.4793C100.449 22.6061 100.623 22.8279 100.845 23.1448C101.098 23.4301 101.193 23.6519 101.13 23.8104V23.9054C101.067 24.0322 100.972 24.1431 100.845 24.2382C100.718 24.3016 100.607 24.3808 100.512 24.4759C100.258 24.7294 100.021 24.9671 99.7989 25.189C99.5771 25.4108 99.3552 25.6485 99.1334 25.9021L96.804 28.6118L95.6631 29.8953C96.7723 29.7368 97.7072 29.3565 98.4678 28.7544C99.2285 28.1205 99.9732 27.4074 100.702 26.6151C101.114 26.1081 101.605 25.5693 102.176 24.9988C102.271 24.9037 102.493 24.6819 102.841 24.3333C103.19 23.953 103.554 23.5727 103.935 23.1924C104.347 22.7804 104.727 22.4159 105.076 22.099C105.424 21.782 105.646 21.6236 105.741 21.6236C105.9 21.6236 106.106 21.7504 106.359 22.0039C106.644 22.2257 106.835 22.3842 106.93 22.4793C107.025 22.6061 107.183 22.8279 107.405 23.1448C107.659 23.4301 107.754 23.6519 107.69 23.8104V23.9054C107.627 24.0322 107.532 24.1431 107.405 24.2382C107.31 24.3016 107.215 24.3808 107.12 24.4759C106.866 24.7294 106.629 24.9671 106.407 25.189C106.185 25.4108 105.947 25.6485 105.694 25.9021L103.459 28.6118L102.318 29.8953C102.699 29.8319 103.142 29.7051 103.65 29.515C104.157 29.2931 104.664 29.0713 105.171 28.8494C105.678 28.5959 106.153 28.3424 106.597 28.0888C107.072 27.8036 107.468 27.5659 107.785 27.3757C108.166 27.1539 108.388 27.0747 108.451 27.1381C108.514 27.2014 108.689 27.3599 108.974 27.6134C108.974 27.6451 108.942 27.7402 108.879 27.8987L108.451 28.1839C108.039 28.5008 107.5 28.897 106.835 29.3724C106.201 29.8161 105.519 30.2439 104.79 30.6559C104.062 31.0362 103.333 31.3373 102.604 31.5591C101.875 31.781 101.257 31.7968 100.75 31.6067C100.623 31.6067 100.48 31.5433 100.322 31.4165C100.195 31.2898 100.068 31.1471 99.9415 30.9887C99.8148 30.7985 99.688 30.6084 99.5612 30.4182C99.4662 30.2281 99.3869 30.0696 99.3235 29.9428Z" fill="#1F3326" style="fill:#1F3326;fill:color(display-p3 0.1216 0.2000 0.1490);fill-opacity:1;"/>
<path d="M118.252 24.0481C118.062 23.7311 117.777 23.6519 117.396 23.8104C117.048 23.9371 116.747 24.0797 116.493 24.2382C116.24 24.4284 115.923 24.7294 115.542 25.1414C115.194 25.5534 114.845 26.013 114.497 26.5201C114.148 26.9954 113.831 27.4708 113.546 27.9462C113.292 28.4216 113.118 28.8178 113.023 29.1347C112.896 29.3248 112.912 29.5308 113.07 29.7527C113.197 29.9111 113.435 29.9745 113.783 29.9428C114.132 29.8794 114.497 29.7844 114.877 29.6576C115.257 29.5308 115.606 29.3882 115.923 29.2298C116.271 29.0713 116.525 28.9604 116.683 28.897C117.159 28.6434 117.634 28.3899 118.109 28.1364C118.585 27.8828 119.044 27.6293 119.488 27.3757C119.868 27.1539 120.09 27.0747 120.154 27.1381C120.217 27.2014 120.391 27.3599 120.677 27.6134C120.677 27.6451 120.645 27.7402 120.581 27.8987L120.154 28.1839C119.647 28.5642 119.139 28.9287 118.632 29.2773C118.157 29.6259 117.65 29.9587 117.111 30.2756C116.763 30.4658 116.335 30.6876 115.828 30.9411C115.321 31.1947 114.798 31.4007 114.259 31.5591C113.752 31.6859 113.245 31.7334 112.738 31.7018C112.262 31.6384 111.882 31.3848 111.597 30.9411L110.408 29.2773C110.123 28.8653 110.028 28.4057 110.123 27.8987C110.25 27.3599 110.456 26.837 110.741 26.3299C111.058 25.8228 111.407 25.3474 111.787 24.9037C112.167 24.4601 112.484 24.1114 112.738 23.8579C113.15 23.4459 113.577 23.0656 114.021 22.717C114.465 22.3367 114.924 22.0197 115.4 21.7662C115.748 21.6077 116.129 21.4651 116.541 21.3384C116.984 21.1799 117.396 21.164 117.777 21.2908L120.154 23.9054C120.28 24.0639 120.217 24.2857 119.963 24.571C119.71 24.8245 119.536 24.983 119.441 25.0464C119.377 25.1414 119.25 25.2999 119.06 25.5217C118.902 25.7119 118.775 25.7911 118.68 25.7594C118.617 25.7594 118.553 25.7436 118.49 25.7119C118.426 25.6485 118.363 25.5851 118.3 25.5217C118.141 25.2682 117.951 25.0464 117.729 24.8562V24.8087C117.793 24.7136 117.888 24.5868 118.014 24.4284C118.141 24.2699 118.22 24.1431 118.252 24.0481Z" fill="#1F3326" style="fill:#1F3326;fill:color(display-p3 0.1216 0.2000 0.1490);fill-opacity:1;"/>
<path d="M130.041 23.5727L133.131 21.6711C133.353 21.481 133.638 21.481 133.987 21.6711H134.082C134.335 21.7979 134.589 21.988 134.842 22.2416C134.906 22.305 135.001 22.4001 135.128 22.5268C135.254 22.6536 135.381 22.7962 135.508 22.9547C135.635 23.1131 135.73 23.2716 135.793 23.4301C135.888 23.5568 135.92 23.6677 135.888 23.7628L139.358 21.6711C139.58 21.481 139.866 21.481 140.214 21.6711H140.309C140.563 21.7979 140.816 21.988 141.07 22.2416C141.228 22.3684 141.45 22.6061 141.735 22.9547C142.052 23.3033 142.179 23.5885 142.116 23.8104C142.052 23.9688 141.941 24.0956 141.783 24.1907C141.656 24.2857 141.529 24.3967 141.403 24.5234C141.149 24.7453 140.911 24.9671 140.69 25.189C140.499 25.4108 140.293 25.6485 140.072 25.9021L137.742 28.6118L136.649 29.8953C137.029 29.8319 137.457 29.7051 137.932 29.515C138.439 29.2931 138.946 29.0713 139.454 28.8494C139.992 28.5959 140.499 28.3424 140.975 28.0888C141.45 27.8036 141.846 27.5659 142.163 27.3757C142.544 27.1539 142.765 27.0747 142.829 27.1381C142.892 27.2014 143.066 27.3599 143.352 27.6134C143.352 27.6451 143.32 27.7402 143.257 27.8987L142.829 28.1839C142.417 28.5008 141.878 28.897 141.212 29.3724C140.547 29.8161 139.85 30.2439 139.121 30.6559C138.392 31.0362 137.663 31.3373 136.934 31.5591C136.205 31.781 135.571 31.7968 135.032 31.6067C134.842 31.6067 134.62 31.4324 134.367 31.0838C134.113 30.7351 133.939 30.4816 133.844 30.3231C133.749 30.133 133.622 29.8953 133.464 29.6101C133.337 29.2931 133.289 29.0238 133.321 28.8019C133.321 28.6751 133.448 28.4533 133.701 28.1364C133.955 27.8194 134.24 27.4708 134.557 27.0905C134.874 26.7102 135.191 26.3616 135.508 26.0447C135.856 25.6961 136.11 25.4267 136.268 25.2365C135.001 25.9021 133.923 26.5834 133.036 27.2807C132.18 27.9462 131.293 28.8336 130.374 29.9428L128.852 31.6067C128.631 31.6067 128.393 31.4324 128.139 31.0838C127.886 30.7351 127.712 30.4816 127.616 30.3231C127.521 30.133 127.395 29.8953 127.236 29.6101C127.109 29.2931 127.062 29.0238 127.094 28.8019C127.125 28.6751 127.268 28.4533 127.521 28.1364C127.775 27.7878 128.06 27.4391 128.377 27.0905C128.694 26.7102 129.011 26.3457 129.328 25.9971C129.645 25.6485 129.882 25.395 130.041 25.2365C128.361 26.0288 126.935 27.1539 125.762 28.6118L123.148 31.5591C123.053 31.6542 122.942 31.6542 122.815 31.5591C122.688 31.4324 122.546 31.2898 122.387 31.1313C122.26 30.9728 122.15 30.8144 122.054 30.6559C121.959 30.4658 121.896 30.3548 121.864 30.3231C121.769 30.133 121.642 29.8953 121.484 29.6101C121.357 29.2931 121.31 29.0238 121.341 28.8019C121.341 28.6751 121.484 28.4216 121.769 28.0413C122.086 27.661 122.419 27.2648 122.768 26.8528C123.116 26.4408 123.465 26.0605 123.813 25.7119C124.162 25.3633 124.384 25.1256 124.479 24.9988C124.574 24.9037 124.796 24.6819 125.144 24.3333C125.493 23.953 125.873 23.5727 126.285 23.1924C126.697 22.7804 127.062 22.4159 127.379 22.099C127.727 21.782 127.949 21.6236 128.044 21.6236C128.203 21.6236 128.409 21.7504 128.662 22.0039C128.948 22.2257 129.138 22.3842 129.233 22.4793C129.36 22.6377 129.502 22.8121 129.661 23.0022C129.851 23.1924 129.978 23.3825 130.041 23.5727Z" fill="#1F3326" style="fill:#1F3326;fill:color(display-p3 0.1216 0.2000 0.1490);fill-opacity:1;"/>
<path d="M150.978 29.9428C150.661 30.133 150.281 30.3548 149.837 30.6084C149.394 30.8619 148.934 31.0838 148.459 31.2739C147.983 31.4641 147.508 31.6067 147.033 31.7018C146.557 31.7651 146.129 31.7334 145.749 31.6067C145.527 31.6067 145.29 31.4324 145.036 31.0838C144.782 30.7351 144.624 30.4816 144.561 30.3231C144.434 30.133 144.307 29.8953 144.18 29.6101C144.054 29.2931 144.006 29.0238 144.038 28.8019C144.038 28.6751 144.18 28.4216 144.466 28.0413C144.751 27.661 145.068 27.2648 145.416 26.8528C145.797 26.4408 146.145 26.0605 146.462 25.7119C146.811 25.3633 147.049 25.1256 147.175 24.9988C147.27 24.9037 147.492 24.6819 147.841 24.3333C148.189 23.953 148.57 23.5727 148.982 23.1924C149.394 22.7804 149.774 22.4159 150.123 22.099C150.471 21.782 150.693 21.6236 150.788 21.6236C150.947 21.6236 151.153 21.7504 151.406 22.0039C151.691 22.2257 151.882 22.3842 151.977 22.4793C152.103 22.6061 152.278 22.8279 152.5 23.1448C152.753 23.4301 152.848 23.6519 152.785 23.8104V23.9054C152.721 24.0322 152.626 24.1431 152.5 24.2382C152.373 24.3016 152.262 24.3808 152.167 24.4759C151.913 24.7294 151.676 24.9671 151.454 25.189C151.232 25.4108 151.01 25.6485 150.788 25.9021L148.459 28.6118L147.318 29.8953C148.427 29.7368 149.362 29.3565 150.123 28.7544C150.883 28.1205 151.628 27.4074 152.357 26.6151C152.769 26.1081 153.26 25.5693 153.831 24.9988C153.926 24.9037 154.148 24.6819 154.496 24.3333C154.845 23.953 155.209 23.5727 155.59 23.1924C156.002 22.7804 156.382 22.4159 156.731 22.099C157.079 21.782 157.301 21.6236 157.396 21.6236C157.555 21.6236 157.761 21.7504 158.014 22.0039C158.299 22.2257 158.489 22.3842 158.585 22.4793C158.68 22.6061 158.838 22.8279 159.06 23.1448C159.313 23.4301 159.409 23.6519 159.345 23.8104V23.9054C159.282 24.0322 159.187 24.1431 159.06 24.2382C158.965 24.3016 158.87 24.3808 158.775 24.4759C158.521 24.7294 158.283 24.9671 158.062 25.189C157.84 25.4108 157.602 25.6485 157.349 25.9021L155.114 28.6118L153.973 29.8953C154.354 29.8319 154.797 29.7051 155.304 29.515C155.811 29.2931 156.319 29.0713 156.826 28.8494C157.333 28.5959 157.808 28.3424 158.252 28.0888C158.727 27.8036 159.123 27.5659 159.44 27.3757C159.821 27.1539 160.042 27.0747 160.106 27.1381C160.169 27.2014 160.343 27.3599 160.629 27.6134C160.629 27.6451 160.597 27.7402 160.534 27.8987L160.106 28.1839C159.694 28.5008 159.155 28.897 158.489 29.3724C157.856 29.8161 157.174 30.2439 156.445 30.6559C155.716 31.0362 154.987 31.3373 154.259 31.5591C153.53 31.781 152.912 31.7968 152.405 31.6067C152.278 31.6067 152.135 31.5433 151.977 31.4165C151.85 31.2898 151.723 31.1471 151.596 30.9887C151.47 30.7985 151.343 30.6084 151.216 30.4182C151.121 30.2281 151.042 30.0696 150.978 29.9428Z" fill="#1F3326" style="fill:#1F3326;fill:color(display-p3 0.1216 0.2000 0.1490);fill-opacity:1;"/>
<path d="M167.387 25.4742L173.995 21.8613C174.154 21.7979 174.312 21.7504 174.471 21.7187C174.661 21.687 174.803 21.7504 174.898 21.9088L176.325 23.7628V23.8104L170.192 26.1397L171.904 29.6101C172.601 29.3882 173.187 29.1505 173.662 28.897C174.17 28.6434 174.661 28.3899 175.136 28.1364C175.612 27.8828 176.071 27.6293 176.515 27.3757C176.863 27.1539 177.069 27.0747 177.133 27.1381C177.196 27.2014 177.37 27.3599 177.656 27.6134C177.656 27.6451 177.624 27.7402 177.561 27.8987L177.133 28.1839C176.467 28.691 175.833 29.1822 175.231 29.6576C174.629 30.1013 173.995 30.4974 173.33 30.8461C172.696 31.1947 172.014 31.4482 171.286 31.6067C170.557 31.7651 169.748 31.7968 168.861 31.7018C168.766 31.7651 168.639 31.6859 168.481 31.4641C168.354 31.2422 168.227 30.9887 168.1 30.7034C167.974 30.4182 167.863 30.1488 167.768 29.8953C167.673 29.6418 167.609 29.4833 167.578 29.4199C167.324 28.8178 167.086 28.1522 166.864 27.4233L165.438 28.0413H165.391L162.158 31.6542C162.126 31.6859 162.079 31.6701 162.016 31.6067C161.699 31.4799 161.397 31.1471 161.112 30.6084C160.795 30.0696 160.653 29.6259 160.684 29.2773C160.684 29.1505 161.065 28.6751 161.825 27.8511C162.586 27.0271 163.537 26.0288 164.678 24.8562C165.819 23.6836 167.055 22.4317 168.386 21.1007C169.748 19.7696 170.731 18.803 171.333 18.2008C171.935 17.567 172.268 17.25 172.331 17.25C172.426 17.25 172.569 17.3768 172.759 17.6304C172.981 17.8839 173.171 18.1691 173.33 18.486C173.52 18.803 173.647 19.1199 173.71 19.4368C173.805 19.722 173.805 19.8964 173.71 19.9597C172.728 20.752 172.014 21.37 171.571 21.8137L167.387 25.4742Z" fill="#1F3326" style="fill:#1F3326;fill:color(display-p3 0.1216 0.2000 0.1490);fill-opacity:1;"/>
<path d="M185.562 29.3248L184.469 30.1805C184.12 30.4024 183.724 30.6401 183.28 30.8936C182.836 31.1471 182.377 31.3214 181.902 31.4165C181.458 31.5116 181.03 31.4958 180.618 31.369C180.238 31.2105 179.937 30.8619 179.715 30.3231L178.907 28.3265C178.748 27.9462 178.701 27.5501 178.764 27.1381C178.859 26.7261 179.018 26.3299 179.239 25.9496C179.461 25.5693 179.715 25.2207 180 24.9037C180.317 24.5551 180.618 24.2541 180.903 24.0005C181.188 23.747 181.521 23.4459 181.902 23.0973C182.314 22.7487 182.741 22.4317 183.185 22.1465C183.629 21.8613 184.072 21.6394 184.516 21.481C184.992 21.2908 185.451 21.2274 185.895 21.2908C186.56 21.3859 187.162 21.7504 187.701 22.3842C188.24 23.0181 188.7 23.6044 189.08 24.1431C189.175 24.0481 189.365 23.8579 189.65 23.5727C189.936 23.2557 190.237 22.9388 190.554 22.6219C190.902 22.305 191.219 22.0197 191.504 21.7662C191.821 21.5127 192.011 21.3859 192.075 21.3859C192.233 21.3859 192.439 21.5127 192.693 21.7662C192.978 21.988 193.168 22.1465 193.263 22.2416C193.358 22.3367 193.533 22.5268 193.786 22.8121C194.04 23.0973 194.135 23.3191 194.071 23.4776C194.071 23.541 194.056 23.5885 194.024 23.6202C193.96 23.7153 193.865 23.8262 193.739 23.953C193.644 24.0481 193.548 24.1431 193.453 24.2382C192.883 24.7136 192.423 25.189 192.075 25.6644L189.698 28.279L188.604 29.6101C188.985 29.5467 189.428 29.4199 189.936 29.2298C190.443 29.0079 190.95 28.7702 191.457 28.5167C191.964 28.2631 192.455 28.0096 192.93 27.7561C193.406 27.5025 193.818 27.2807 194.166 27.0905C194.515 26.837 194.721 26.7577 194.784 26.8528C194.848 26.9162 195.038 27.0905 195.355 27.3757C195.387 27.4391 195.355 27.5184 195.26 27.6134C195.101 27.7719 194.959 27.867 194.832 27.8987C194.42 28.2156 193.881 28.6118 193.216 29.0871C192.55 29.5308 191.837 29.9587 191.076 30.3707C190.348 30.751 189.619 31.0521 188.89 31.2739C188.161 31.4958 187.543 31.5116 187.036 31.3214C186.909 31.3214 186.766 31.2422 186.608 31.0838C186.481 30.9253 186.338 30.751 186.18 30.5608C186.053 30.339 185.926 30.1171 185.8 29.8953C185.705 29.6418 185.625 29.4516 185.562 29.3248ZM181.664 28.3265C181.347 28.7702 181.22 29.0871 181.283 29.2773C181.379 29.4674 181.553 29.5784 181.806 29.6101C182.06 29.6418 182.361 29.6101 182.71 29.515C183.058 29.4199 183.343 29.309 183.565 29.1822L184.564 28.6118C184.69 28.5167 185.007 28.2314 185.514 27.7561C186.053 27.249 186.529 26.7261 186.941 26.1873C187.384 25.6168 187.654 25.1256 187.749 24.7136C187.876 24.2699 187.606 24.0639 186.941 24.0956C186.877 24.0639 186.83 24.0639 186.798 24.0956C186.798 24.0956 186.766 24.0956 186.703 24.0956C186.354 24.2224 185.895 24.4759 185.324 24.8562C184.785 25.2365 184.342 25.5534 183.993 25.807C183.581 26.1556 183.169 26.5517 182.757 26.9954C182.377 27.4391 182.012 27.8828 181.664 28.3265Z" fill="#1F3326" style="fill:#1F3326;fill:color(display-p3 0.1216 0.2000 0.1490);fill-opacity:1;"/>
<path fill-rule="evenodd" clip-rule="evenodd" d="M11.7989 36.8021L15.2052 35.9674L15.2163 35.957C16.3876 35.7038 17.5588 35.4823 18.7301 35.2923C19.9027 35.0705 21.0753 34.8645 22.2479 34.6743C24.6565 34.3257 27.081 34.0405 29.5213 33.8186C31.9933 33.5968 34.4495 33.5017 36.8898 33.5334C37.4919 33.5334 38.2208 33.5493 39.0765 33.5809C39.9322 33.6126 40.8038 33.6919 41.6912 33.8186C42.5785 33.9454 43.4184 34.1197 44.2107 34.3416C45.0347 34.5317 45.7002 34.8169 46.2073 35.1973L48.8219 38.2873C48.8219 38.319 48.8061 38.3348 48.7744 38.3348L45.5893 37.4316C41.3425 36.7343 37.2067 36.4491 33.1818 36.5759C29.1885 36.6709 25.0844 37.1305 20.8693 37.9545C17.4465 38.62 14.0554 39.444 10.696 40.4265C7.36835 41.409 4.04065 42.4231 0.712956 43.469H0.665417L-0.00012207 41.9953C0.602033 41.3614 1.41019 40.7751 2.42434 40.2363C3.4385 39.6659 4.50019 39.1746 5.60942 38.7626C6.75035 38.319 7.87543 37.9386 8.98466 37.6217C10.0647 37.2917 11.0028 37.0185 11.7989 36.8021Z" fill="#1F3326" style="fill:#1F3326;fill:color(display-p3 0.1216 0.2000 0.1490);fill-opacity:1;"/>
<path d="M74.6974 34.9091C75.8391 35.0859 76.9809 35.2774 78.1227 35.4837L81.5481 36.1025V36.0583L84.742 36.8539C85.5443 37.0602 86.501 37.3254 87.6119 37.6496L90.8984 38.7104C91.9785 39.0935 93.0123 39.5502 93.9997 40.0806C94.9872 40.5816 95.7741 41.1267 96.3605 41.7161L95.7124 43.0863H95.6661C92.4259 42.1139 89.1857 41.1709 85.9455 40.2574C82.6744 39.3439 79.3725 38.5778 76.0397 37.959C71.9355 37.1928 67.9392 36.7655 64.0509 36.6771C60.1318 36.5593 56.1047 36.8245 51.9696 37.4727L48.8682 38.3126C48.8374 38.3126 48.8219 38.2978 48.8219 38.2684L51.3678 35.3953C51.8616 35.0417 52.5096 34.7765 53.312 34.5997C54.0834 34.3934 54.9012 34.2313 55.7653 34.1134C56.6293 33.9956 57.4779 33.9219 58.3111 33.8924C59.1443 33.863 59.8541 33.8482 60.4404 33.8482C62.8166 33.8188 65.2082 33.9072 67.6152 34.1134C69.9913 34.3197 72.3521 34.5849 74.6974 34.9091Z" fill="#1F3326" style="fill:#1F3326;fill:color(display-p3 0.1216 0.2000 0.1490);fill-opacity:1;"/>
<path d="M45.418 5.52063C45.0854 5.81631 44.8858 5.98263 44.8193 6.01959L14.4921 31.8859L16.9414 34.0455L26.7256 26.1999L50.4403 5.29887C49.3538 7.036 48.2673 8.79161 47.1808 10.5657C46.0943 12.3398 45.0189 14.1139 43.9545 15.888L41.593 19.8242H41.6263C41.5154 19.9721 41.3269 20.2678 41.0609 20.7113L40.1296 22.2636C39.797 22.855 39.4422 23.4833 39.0652 24.1486C38.7105 24.7769 38.3778 25.3683 38.0674 25.9227C37.757 26.4771 37.4909 26.9575 37.2692 27.3641C37.0696 27.7707 36.9698 28.0109 36.9698 28.0848C36.9476 28.2696 36.9698 28.5468 37.0363 28.9164C37.125 29.2491 37.2248 29.6002 37.3357 29.9698C37.4466 30.3024 37.5685 30.6166 37.7015 30.9123C37.8346 31.208 37.9565 31.3928 38.0674 31.4667C38.1339 31.5776 38.1783 31.6145 38.2005 31.5776L40.4622 27.2532C41.2604 25.9227 42.0587 24.6106 42.8569 23.317C43.6773 21.9864 44.4867 20.6743 45.2849 19.3807L47.6132 15.7771C48.8105 14.003 50.019 12.3213 51.2386 10.732C52.4803 9.10577 53.7553 7.53496 55.0635 6.01959C55.1522 5.90871 55.1189 5.70543 54.9637 5.40975C54.8307 5.07711 54.6533 4.74447 54.4316 4.41183C54.232 4.04222 54.0214 3.70958 53.7996 3.4139C53.5779 3.11822 53.4448 2.93342 53.4005 2.8595L53.0014 2.41597C52.8018 2.15725 52.5912 1.89853 52.3694 1.63981C52.1477 1.34413 51.937 1.08541 51.7375 0.863647C51.5379 0.641886 51.4049 0.531006 51.3383 0.531006C51.3162 0.531006 51.1499 0.660366 50.8394 0.919086C50.529 1.17781 50.141 1.51045 49.6753 1.91701C49.2097 2.28661 48.6997 2.71166 48.1453 3.19214L46.6154 4.46727C46.1497 4.87383 45.7506 5.22495 45.418 5.52063Z" fill="#1F3326" style="fill:#1F3326;fill:color(display-p3 0.1216 0.2000 0.1490);fill-opacity:1;"/>
</svg>
