<svg width="26" height="26" viewBox="0 0 26 26" fill="none" xmlns="http://www.w3.org/2000/svg">
<path d="M15.4107 15.4107C13.4464 17.4375 13.3036 19.9643 13.1339 25.5C18.2946 25.5 21.8571 25.4821 23.6964 23.6964C25.4821 21.8571 25.5 18.125 25.5 13.1339C19.9643 13.3125 17.4375 13.4464 15.4107 15.4107V15.4107ZM0.5 13.1339C0.5 18.125 0.517857 21.8571 2.30357 23.6964C4.14286 25.4821 7.70536 25.5 12.8661 25.5C12.6875 19.9643 12.5536 17.4375 10.5893 15.4107C8.5625 13.4464 6.03571 13.3036 0.5 13.1339V13.1339ZM12.8661 0.5C7.71429 0.5 4.14286 0.517857 2.30357 2.30357C0.517857 4.14286 0.5 7.875 0.5 12.8661C6.03571 12.6875 8.5625 12.5536 10.5893 10.5893C12.5536 8.5625 12.6964 6.03571 12.8661 0.5V0.5ZM15.4107 10.5893C13.4464 8.5625 13.3036 6.03571 13.1339 0.5C18.2946 0.5 21.8571 0.517857 23.6964 2.30357C25.4821 4.14286 25.5 7.875 25.5 12.8661C19.9643 12.6875 17.4375 12.5536 15.4107 10.5893" fill="#2C3036" style="fill:#2C3036;fill:color(display-p3 0.1725 0.1882 0.2118);fill-opacity:1;"/>
<path d="M25.5 13.1339V12.8661C19.9643 12.6875 17.4375 12.5536 15.4107 10.5893C13.4464 8.5625 13.3036 6.03571 13.1339 0.5H12.8661C12.6875 6.03571 12.5536 8.5625 10.5893 10.5893C8.5625 12.5536 6.03571 12.6964 0.5 12.8661V13.1339C6.03571 13.3125 8.5625 13.4464 10.5893 15.4107C12.5536 17.4375 12.6964 19.9643 12.8661 25.5H13.1339C13.3125 19.9643 13.4464 17.4375 15.4107 15.4107C17.4375 13.4464 19.9643 13.3036 25.5 13.1339" fill="white" style="fill:white;fill-opacity:1;"/>
</svg>
