<svg width="25" height="24" viewBox="0 0 25 24" fill="none" xmlns="http://www.w3.org/2000/svg">
<path d="M12.4186 21.2127L2.7346 11.7462C1.72552 10.7382 1.16391 9.38175 1.17171 7.97142C1.17951 6.56108 1.75609 5.21069 2.77627 4.21342C3.79644 3.21615 5.17785 2.65251 6.62058 2.64489C8.0633 2.63726 9.45087 3.18626 10.482 4.17269L12.4186 6.06578L14.3551 4.17269C15.1537 3.39194 16.1795 2.87152 17.2922 2.68265C18.405 2.49378 19.5503 2.64571 20.5713 3.11762C21.5923 3.58954 22.4392 4.35839 22.996 5.31893C23.5528 6.27947 23.7923 7.38475 23.6817 8.48348" stroke="#566B61" style="stroke:#566B61;stroke:color(display-p3 0.3373 0.4196 0.3804);stroke-opacity:1;" stroke-width="1.18"/>
<path d="M16.0871 11.9549L17.1399 12.984L18.1915 11.9549C18.4679 11.6848 18.796 11.4705 19.157 11.3243C19.5181 11.1781 19.9051 11.1028 20.2959 11.1028C20.6868 11.1028 21.0738 11.1781 21.4348 11.3243C21.7959 11.4705 22.124 11.6848 22.4004 11.9549C22.6767 12.2251 22.8959 12.5458 23.0455 12.8987C23.1951 13.2517 23.272 13.63 23.272 14.0121C23.272 14.3941 23.1951 14.7724 23.0455 15.1254C22.8959 15.4784 22.6767 15.7991 22.4004 16.0692L17.1399 21.2127L11.8783 16.0692C11.6019 15.7991 11.3827 15.4784 11.2331 15.1254C11.0836 14.7724 11.0066 14.3941 11.0066 14.0121C11.0066 13.63 11.0836 13.2517 11.2331 12.8987C11.3827 12.5458 11.6019 12.2251 11.8783 11.9549C12.1546 11.6848 12.4827 11.4705 12.8438 11.3243C13.2049 11.1781 13.5919 11.1028 13.9827 11.1028C14.3735 11.1028 14.7605 11.1781 15.1216 11.3243C15.4827 11.4705 15.8107 11.6848 16.0871 11.9549Z" stroke="#566B61" style="stroke:#566B61;stroke:color(display-p3 0.3373 0.4196 0.3804);stroke-opacity:1;" stroke-width="1.18"/>
</svg>
