<svg width="10" height="9" viewBox="0 0 10 9" fill="none" xmlns="http://www.w3.org/2000/svg">
<path d="M4.62604 0.741781C4.71061 0.48151 5.07882 0.48151 5.16339 0.741782L5.97295 3.23335C6.01077 3.34974 6.11924 3.42855 6.24162 3.42855H8.86141C9.13507 3.42855 9.24886 3.77874 9.02746 3.9396L6.90801 5.47947C6.80899 5.55141 6.76756 5.67892 6.80538 5.79532L7.61494 8.28688C7.69951 8.54715 7.40162 8.76358 7.18022 8.60273L5.06076 7.06286C4.96175 6.99092 4.82768 6.99092 4.72866 7.06286L2.60921 8.60273C2.38781 8.76358 2.08992 8.54715 2.17449 8.28688L2.98405 5.79532C3.02187 5.67892 2.98044 5.55141 2.88142 5.47947L0.76197 3.9396C0.540569 3.77874 0.654355 3.42855 0.92802 3.42855H3.54781C3.67019 3.42855 3.77866 3.34974 3.81648 3.23335L4.62604 0.741781Z" fill="#C3846F" style="fill:#C3846F;fill:color(display-p3 0.7647 0.5176 0.4353);fill-opacity:1;"/>
</svg>
