<svg width="24" height="24" viewBox="0 0 24 24" fill="none" xmlns="http://www.w3.org/2000/svg">
<path d="M1 21L12 2L23 21H1ZM3.6 19.5H20.4L12 5L3.6 19.5ZM12.1045 18.075C12.3181 18.075 12.4958 18.0026 12.6375 17.858C12.7792 17.7135 12.85 17.5343 12.85 17.3205C12.85 17.1068 12.7777 16.9292 12.633 16.7875C12.4885 16.6459 12.3094 16.575 12.0955 16.575C11.8819 16.575 11.7042 16.6473 11.5625 16.792C11.4208 16.9365 11.35 17.1157 11.35 17.3295C11.35 17.5431 11.4223 17.7208 11.567 17.8625C11.7115 18.0041 11.8906 18.075 12.1045 18.075ZM11.35 15.3H12.85V9.7H11.35V15.3Z" fill="#B4664C" style="fill:#B4664C;fill:color(display-p3 0.7059 0.4000 0.2980);fill-opacity:1;"/>
</svg>
