<svg width="32" height="32" viewBox="0 0 32 32" fill="none" xmlns="http://www.w3.org/2000/svg">
<g clip-path="url(#clip0_2564_7987)">
<path d="M12.8157 25.5778H0.87793V21.4322C4.72597 19.2898 9.05851 18.1684 13.4627 18.175C15.7665 18.175 17.9992 18.4755 20.1253 19.0396" stroke="#566B61" style="stroke:#566B61;stroke:color(display-p3 0.3373 0.4196 0.3804);stroke-opacity:1;" stroke-width="1.57927"/>
<path d="M7.54053 7.44085C7.54053 9.1097 8.20348 10.7102 9.38353 11.8903C10.5636 13.0703 12.1641 13.7333 13.8329 13.7333C15.5018 13.7333 17.1023 13.0703 18.2823 11.8903C19.4624 10.7102 20.1253 9.1097 20.1253 7.44085C20.1253 5.772 19.4624 4.1715 18.2823 2.99144C17.1023 1.81139 15.5018 1.14844 13.8329 1.14844C12.1641 1.14844 10.5636 1.81139 9.38353 2.99144C8.20348 4.1715 7.54053 5.772 7.54053 7.44085Z" stroke="#566B61" style="stroke:#566B61;stroke:color(display-p3 0.3373 0.4196 0.3804);stroke-opacity:1;" stroke-width="1.57927"/>
<path d="M30.4894 25.5778H17.1643" stroke="#566B61" style="stroke:#566B61;stroke:color(display-p3 0.3373 0.4196 0.3804);stroke-opacity:1;" stroke-width="1.57927"/>
<path d="M24.5669 19.6555L30.4892 25.5778L24.5669 31.5001" stroke="#566B61" style="stroke:#566B61;stroke:color(display-p3 0.3373 0.4196 0.3804);stroke-opacity:1;" stroke-width="1.57927"/>
</g>
<defs>
<clipPath id="clip0_2564_7987">
<rect width="32" height="32" fill="white" style="fill:white;fill-opacity:1;"/>
</clipPath>
</defs>
</svg>
