<svg width="32" height="32" viewBox="0 0 32 32" fill="none" xmlns="http://www.w3.org/2000/svg">
<path d="M15.6043 28.4093L2.97888 15.7839C1.66329 14.4395 0.931097 12.6305 0.941267 10.7496C0.951436 8.86862 1.70315 7.06761 3.0332 5.73756C4.36324 4.40752 6.16425 3.6558 8.0452 3.64563C9.92614 3.63546 11.7352 4.36766 13.0795 5.68325L15.6043 8.20804L18.1291 5.68325C19.1702 4.64197 20.5076 3.94788 21.9583 3.69599C23.4091 3.4441 24.9022 3.64672 26.2333 4.27612C27.5645 4.90551 28.6686 5.93091 29.3945 7.21197C30.1204 8.49303 30.4327 9.96713 30.2886 11.4325" stroke="#566B61" style="stroke:#566B61;stroke:color(display-p3 0.3373 0.4196 0.3804);stroke-opacity:1;" stroke-width="1.60941"/>
<path d="M20.6916 16.0623L22.0641 17.4348L23.4352 16.0623C23.7955 15.702 24.2232 15.4162 24.694 15.2212C25.1647 15.0262 25.6693 14.9258 26.1788 14.9258C26.6883 14.9258 27.1929 15.0262 27.6636 15.2212C28.1344 15.4162 28.5621 15.702 28.9224 16.0623C29.2827 16.4226 29.5685 16.8503 29.7635 17.3211C29.9585 17.7918 30.0589 18.2964 30.0589 18.8059C30.0589 19.3155 29.9585 19.82 29.7635 20.2908C29.5685 20.7615 29.2827 21.1892 28.9224 21.5495L22.0641 28.4093L15.2043 21.5495C14.844 21.1892 14.5582 20.7615 14.3632 20.2908C14.1682 19.82 14.0679 19.3155 14.0679 18.8059C14.0679 18.2964 14.1682 17.7918 14.3632 17.3211C14.5582 16.8503 14.844 16.4226 15.2043 16.0623C15.5646 15.702 15.9924 15.4162 16.4631 15.2212C16.9339 15.0262 17.4384 14.9258 17.9479 14.9258C18.4575 14.9258 18.962 15.0262 19.4328 15.2212C19.9035 15.4162 20.3313 15.702 20.6916 16.0623Z" stroke="#566B61" style="stroke:#566B61;stroke:color(display-p3 0.3373 0.4196 0.3804);stroke-opacity:1;" stroke-width="1.60941"/>
</svg>
