<svg width="243" height="243" viewBox="0 0 243 243" fill="none" xmlns="http://www.w3.org/2000/svg">
<g opacity="0.6">
<path d="M112.117 0.949097C117.494 0.949174 121.871 5.32556 121.871 10.7037V41.756L123.388 40.2265C125.158 38.4409 127.606 37.3347 130.309 37.3347H165.604C168.306 37.3347 170.754 38.4409 172.525 40.2265L174.041 41.756V10.7037C174.041 5.32556 178.418 0.94917 183.796 0.949097H219.091L219.591 0.962088C224.738 1.22415 228.846 5.49435 228.846 10.7046V232.296C228.846 237.674 224.469 242.051 219.092 242.051H183.797C180.266 242.051 177.173 240.157 175.459 237.33L174.7 236.078L173.942 237.33C172.228 240.158 169.134 242.051 165.604 242.051H130.309C126.778 242.051 123.685 240.157 121.971 237.33L121.212 236.078L120.454 237.33C118.74 240.158 115.646 242.051 112.116 242.051H76.8215C73.2911 242.051 70.1971 240.158 68.4829 237.33L67.7251 236.079L66.9664 237.33C65.2517 240.157 62.1585 242.051 58.6278 242.051H23.3344C17.9557 242.051 13.5782 237.674 13.578 232.296V47.0901C13.5782 41.712 17.9552 37.3355 23.3344 37.3355H58.6278C61.3312 37.3355 63.78 38.4411 65.5504 40.2265L67.0677 41.7568V10.7037C67.0679 5.32559 71.4439 0.949221 76.8215 0.949097H112.117ZM14.8945 212.851V232.296C14.8947 236.95 18.6805 240.734 23.3344 240.734H58.6278C63.2817 240.734 67.0676 236.95 67.0677 232.296V212.851H14.8945ZM68.3833 54.7523V232.296C68.3835 236.95 72.1674 240.734 76.8215 240.734H112.116C116.77 240.734 120.554 236.95 120.554 232.296C120.554 208.658 120.555 71.9391 120.555 55.6392V54.7523H68.3833ZM121.871 212.851V232.296C121.871 236.95 125.655 240.734 130.309 240.734H165.604C170.258 240.734 174.041 236.95 174.041 232.296V213.738H173.155V212.851H121.871ZM175.358 212.441V232.296C175.359 236.95 179.142 240.734 183.797 240.734H219.091C223.745 240.734 227.529 236.95 227.529 232.296V213.328H226.643V212.441H175.358ZM101.677 99.3742C104.084 99.3742 106.043 101.334 106.043 103.74V208.484C106.043 210.891 104.084 212.851 101.677 212.851H87.2611C84.8541 212.851 82.8953 210.891 82.8953 208.484V103.74C82.8953 101.334 84.8541 99.3743 87.2611 99.3742H101.677ZM14.8945 189.927V211.534H67.0677V189.927H14.8945ZM87.2611 100.691C85.5786 100.691 84.2117 102.058 84.2117 103.74V208.484C84.2117 210.167 85.5793 211.534 87.2611 211.534H101.677C103.36 211.534 104.726 210.166 104.726 208.484V103.74C104.726 102.058 103.359 100.691 101.677 100.691H87.2611ZM121.871 189.927V211.534H174.042V189.927H121.871ZM238.077 186.832C238.44 186.832 238.735 187.127 238.735 187.491V210.554C238.735 210.918 238.44 211.211 238.077 211.211C237.713 211.211 237.419 210.918 237.419 210.554V187.491C237.419 187.127 237.713 186.832 238.077 186.832ZM175.358 189.927V211.125H227.53V189.927H175.358ZM14.8945 90.7758V188.611H67.0677V90.7758H14.8945ZM175.358 54.7523V188.611H227.53V54.7523H175.358ZM130.309 38.6511C125.655 38.6512 121.871 42.4364 121.871 47.0901V188.61H174.042V47.0901C174.042 42.4363 170.258 38.6511 165.604 38.6511H130.309ZM238.077 174.596C238.44 174.596 238.735 174.891 238.735 175.254V179.468C238.735 179.832 238.44 180.126 238.077 180.126C237.713 180.126 237.419 179.832 237.419 179.468V175.254C237.419 174.89 237.713 174.596 238.077 174.596ZM131.101 117.48C131.464 117.48 131.759 117.774 131.759 118.138V129.955C131.759 130.318 131.464 130.612 131.101 130.612C130.738 130.612 130.443 130.318 130.443 129.955V118.138C130.443 117.774 130.738 117.48 131.101 117.48ZM131.101 105.639C131.464 105.64 131.759 105.934 131.759 106.298V110.364C131.759 110.727 131.464 111.022 131.101 111.022C130.737 111.022 130.443 110.727 130.443 110.364V106.298C130.443 105.934 130.738 105.639 131.101 105.639ZM147.957 65.2621C155.341 65.2623 161.35 71.2708 161.35 78.6551C161.35 86.0395 155.341 92.0488 147.957 92.049C140.573 92.049 134.564 86.0396 134.564 78.6551C134.564 71.2707 140.573 65.2621 147.957 65.2621ZM147.957 66.5786C141.297 66.5786 135.88 71.9949 135.88 78.6551C135.88 85.3153 141.297 90.7325 147.957 90.7325C154.616 90.7324 160.033 85.3152 160.033 78.6551C160.033 71.9951 154.617 66.5788 147.957 66.5786ZM14.8945 67.8517V89.4594H67.0677V67.8517H14.8945ZM23.3344 38.6511C18.6805 38.6511 14.8946 42.4361 14.8945 47.0901V66.5353H67.0677V47.0901C67.0676 42.4361 63.2817 38.6511 58.6278 38.6511H23.3344ZM4.92335 49.5117C5.26449 49.5118 5.54461 49.7712 5.57811 50.1023L5.58071 50.1699V55.744C5.58071 56.1074 5.2868 56.4021 4.92335 56.4022C4.58248 56.4022 4.30222 56.1435 4.2686 55.8115L4.26514 55.744V50.1699C4.26523 49.8064 4.55986 49.5117 4.92335 49.5117ZM68.3833 32.2387V53.4367H120.555V32.2387H68.3833ZM175.358 32.2387V53.4367H227.53V32.2387H175.358ZM26.2253 27.4493C26.5887 27.4494 26.8827 27.7441 26.8827 28.1075C26.8826 28.4709 26.5887 28.7655 26.2253 28.7657H23.3327C15.7857 28.7657 8.9659 33.453 6.24239 40.469L6.11507 40.805C5.99768 41.1241 5.66034 41.2992 5.33561 41.2164L5.27065 41.1965C4.92992 41.072 4.75414 40.695 4.87918 40.3529C7.70152 32.6365 15.1195 27.4493 23.3327 27.4493H26.2253ZM76.8215 2.26553C72.1674 2.26566 68.3842 6.05077 68.3842 10.7046V30.9222H120.555V10.7046C120.555 6.05074 116.771 2.26561 112.117 2.26553H76.8215ZM183.797 2.26553C179.142 2.26566 175.359 6.05077 175.359 10.7046V30.9222H227.53V9.81771H227.482C227.038 5.57926 223.446 2.26561 219.092 2.26553H183.797Z" fill="white" style="fill:white;fill-opacity:1;"/>
</g>
</svg>
