<svg width="60" height="60" viewBox="0 0 60 60" fill="none" xmlns="http://www.w3.org/2000/svg">
<g clip-path="url(#clip0_8236_14661)">
<path d="M30.0013 4.17999C26.6888 12.9912 21.075 20.3862 14.0725 25.7362C18.6613 27.9537 24.5413 29.1575 30.0013 29.1575V32.4112C35.3988 29.0062 42.2538 33.3512 47.965 29.3512C47.965 18.4187 40.7538 8.97249 30.0013 4.17999Z" fill="#EBDFD5" style="fill:#EBDFD5;fill:color(display-p3 0.9216 0.8745 0.8353);fill-opacity:1;"/>
<path d="M47.1987 23.2612C43.8112 17.2162 37.7187 12.2462 30.0012 9.17999V4.17999C38.6962 8.05499 45.0762 14.975 47.1987 23.2612Z" fill="#EBDFD5" style="fill:#EBDFD5;fill:color(display-p3 0.9216 0.8745 0.8353);fill-opacity:1;"/>
<path d="M30.0013 4.17999V12.2625C26.9213 18.1387 22.7513 23.21 17.8313 27.2387C16.5125 26.8075 15.25 26.305 14.0725 25.7362C21.075 20.3862 26.6888 12.9912 30.0013 4.17999Z" fill="#EBDFD5" style="fill:#EBDFD5;fill:color(display-p3 0.9216 0.8745 0.8353);fill-opacity:1;"/>
<path d="M49.9937 33.3187C51.2712 32.7825 52.785 33.5925 52.7025 34.7725C52.3812 39.3662 49.7037 43.6525 45.2 46.5737H14.7975C9.90622 43.4012 7.16997 38.6187 7.26497 33.5812C7.28122 32.7387 8.11247 32.06 9.13497 32.06H19.1C21.7823 32.06 24.5436 33.401 25.5925 35.8375C33.0986 35.3491 40.7496 37.2014 49.9937 33.3187Z" fill="#F1F7F0" style="fill:#F1F7F0;fill:color(display-p3 0.9451 0.9686 0.9412);fill-opacity:1;"/>
<path d="M52.7025 34.7725C52.6278 35.8607 51.861 36.7112 50.8807 36.9704C43.4285 38.9407 36.9515 37.6737 30.5925 38.0875C30.1962 37.165 29.5287 36.3687 28.6812 35.7475C35.2465 35.7475 42.0136 36.6705 49.9937 33.3187C51.2712 32.7825 52.785 33.5925 52.7025 34.7725ZM12.265 35.8312C12.19 39.7875 13.8625 43.5875 16.9537 46.5737H14.7975C9.90622 43.4012 7.16997 38.6187 7.26497 33.5812C7.28122 32.7387 8.11247 32.06 9.13497 32.06H19.1C21.1558 32.06 23.246 32.8324 24.6062 34.3262C24.2611 34.3031 24.9611 34.31 14.135 34.31C13.1125 34.31 12.2812 34.9887 12.265 35.8312Z" fill="#EBDFD5" style="fill:#EBDFD5;fill:color(display-p3 0.9216 0.8745 0.8353);fill-opacity:1;"/>
<path d="M57.48 49.0688V56.675H33.94C33.94 57.9588 32.9 59 31.6175 59H28.3825C27.1 59 26.06 57.9588 26.06 56.675H2.52002V49.0688C10.5179 48.2795 26.4834 40.8494 30 46.34C33.5164 40.8498 49.4828 48.2796 57.48 49.0688Z" fill="#EBDFD5" style="fill:#EBDFD5;fill:color(display-p3 0.9216 0.8745 0.8353);fill-opacity:1;"/>
<path d="M45.4563 46.21C42.6979 45.626 38.7284 44.969 36.3566 46.312C34.3905 47.4253 33.7289 45.73 30.6888 45.55C33.6631 42.9899 41.3243 45.1023 45.4563 46.21ZM29.3025 45.5425C22.8988 45.8013 13.2025 49.825 7.52002 50.4025V56.675H2.52002V49.0688C10.0648 48.3243 24.761 41.6504 29.3025 45.5425Z" fill="#EBDFD5" style="fill:#EBDFD5;fill:color(display-p3 0.9216 0.8745 0.8353);fill-opacity:1;"/>
<path d="M59 55.6749H58.4799V49.0691C58.4799 48.8209 58.3876 48.5816 58.2209 48.3977C58.0543 48.2138 57.8252 48.0984 57.5783 48.074C51.9704 47.5196 42.2171 43.5684 35.6444 43.3435C35.0931 43.324 34.6296 43.7568 34.6108 44.3088C34.6063 44.44 34.6277 44.5709 34.6737 44.6938C34.7198 44.8168 34.7897 44.9295 34.8793 45.0255C34.9689 45.1215 35.0766 45.1989 35.1961 45.2532C35.3157 45.3076 35.4448 45.3379 35.576 45.3424C41.5094 45.5454 50.6221 49.112 56.4799 49.9541V55.675H33.9395C33.6743 55.675 33.4199 55.7804 33.2324 55.9679C33.0449 56.1554 32.9395 56.4098 32.9395 56.675C32.9395 57.4056 32.3461 58.0001 31.6169 58.0001H28.383C27.6538 58.0001 27.0604 57.4056 27.0604 56.675C27.0604 56.4098 26.955 56.1554 26.7675 55.9679C26.5799 55.7804 26.3256 55.675 26.0604 55.675H3.52013V49.9541C11.15 48.8571 25.7754 42.6586 29 46.663V49.1458C25.1115 47.1416 17.4853 49.3645 12.9981 50.5935C12.7423 50.6636 12.5248 50.8324 12.3935 51.0628C12.2621 51.2932 12.2277 51.5663 12.2978 51.8221C12.3678 52.0779 12.5366 52.2954 12.767 52.4268C12.9974 52.5581 13.2706 52.5926 13.5264 52.5225C18.827 51.0705 26.7701 48.8956 29 51.6631V54.5823C29 54.8475 29.1054 55.1018 29.2929 55.2894C29.4804 55.4769 29.7348 55.5823 30 55.5823C30.2652 55.5823 30.5196 55.4769 30.7071 55.2894C30.8946 55.1018 31 54.8475 31 54.5823V51.6631C33.2299 48.8959 41.173 51.0706 46.4736 52.5225C47.0086 52.6691 47.5571 52.3524 47.7023 51.8221C47.7369 51.6955 47.7463 51.5632 47.7299 51.4329C47.7135 51.3026 47.6716 51.1769 47.6065 51.0628C47.5415 50.9487 47.4546 50.8485 47.3509 50.768C47.2471 50.6875 47.1285 50.6282 47.0019 50.5935C42.5639 49.378 34.8989 47.1366 31 49.1458C31 46.1606 31.002 46.3229 30.9955 46.2501C30.9798 46.0791 30.9206 45.915 30.8234 45.7734C28.343 41.9639 21.597 43.292 14.5318 45.1781C10.4593 42.2234 8.18088 38.0269 8.265 33.6004C8.26988 33.3455 8.64313 33.0605 9.13563 33.0605H19.1005C21.6164 33.0605 23.8564 34.3358 24.6745 36.2338C24.756 36.4235 24.8944 36.5832 25.0705 36.691C25.2466 36.7989 25.4518 36.8494 25.6579 36.8358C33.1473 36.3478 40.8821 38.2298 50.3809 34.2411C51.0304 33.9684 51.7294 34.3579 51.7053 34.7031C51.523 37.3091 50.5079 39.8463 48.7695 42.0403C48.6048 42.2481 48.5294 42.5129 48.5599 42.7764C48.5904 43.0399 48.7244 43.2804 48.9323 43.4451C49.1401 43.6098 49.4049 43.6852 49.6684 43.6547C49.9319 43.6242 50.1724 43.4903 50.3371 43.2824C52.3269 40.771 53.4899 37.8526 53.7004 34.8428C53.8376 32.8806 51.5495 31.5815 49.6066 32.3973C43.1073 35.1264 37.656 34.9343 31.002 34.7779V5.75838C40.7075 10.6084 46.7411 19.2914 46.9591 28.816C43.4393 30.9775 39.3819 29.8981 35.3293 30C35.0641 30.0066 34.8125 30.1182 34.6296 30.3104C34.4468 30.5025 34.3478 30.7594 34.3544 31.0245C34.368 31.5766 34.8298 32.013 35.3789 31.9994C39.5779 31.8959 44.2606 33.1665 48.539 30.1703C48.6707 30.078 48.7782 29.9554 48.8524 29.8129C48.9266 29.6703 48.9654 29.5119 48.9654 29.3511C48.9654 18.5543 42.0999 8.71638 31.0021 3.5375V1C31.0021 0.734784 30.8968 0.48043 30.7092 0.292893C30.5217 0.105357 30.2673 0 30.0021 0C29.7369 0 29.4826 0.105357 29.295 0.292893C29.1075 0.48043 29.0021 0.734784 29.0021 1V3.06713H25.5236C25.2584 3.06713 25.0041 3.17248 24.8165 3.36002C24.629 3.54755 24.5236 3.80191 24.5236 4.06713C24.5236 4.33234 24.629 4.5867 24.8165 4.77423C25.0041 4.96177 25.2584 5.06713 25.5236 5.06713H29.0021V28.1431C24.4421 28.022 19.828 27.0813 15.9871 25.4964C20.7074 21.6305 24.635 16.9413 27.6755 11.5374C27.7406 11.4229 27.7824 11.2967 27.7986 11.166C27.8148 11.0353 27.805 10.9027 27.7698 10.7758C27.7346 10.6488 27.6747 10.5301 27.5935 10.4265C27.5122 10.3228 27.4114 10.2362 27.2966 10.1716C27.1818 10.107 27.0554 10.0657 26.9246 10.0501C26.7939 10.0345 26.6613 10.0449 26.5345 10.0807C26.4078 10.1165 26.2894 10.1769 26.1861 10.2586C26.0827 10.3403 25.9966 10.4416 25.9325 10.5566C22.7494 16.214 18.555 21.0536 13.4659 24.941C12.8748 25.3926 12.9669 26.3115 13.6376 26.636C17.9988 28.7449 23.5469 30.0058 29.0023 30.1441V34.7489C28.0616 34.7446 27.1286 34.7571 26.1899 34.8026C24.881 32.5389 22.1274 31.0606 19.1009 31.0606H9.1355C7.55263 31.0606 6.29188 32.1596 6.26525 33.5626C6.1775 38.1844 8.29363 42.5624 12.131 45.832C9.3265 46.6055 5.17025 47.8024 2.42175 48.0743C2.17477 48.0987 1.9457 48.2141 1.77906 48.398C1.61242 48.5819 1.52013 48.8212 1.52013 49.0694V55.6751H1C0.734784 55.6751 0.48043 55.7805 0.292893 55.968C0.105357 56.1556 0 56.4099 0 56.6751C0 56.9403 0.105357 57.1947 0.292893 57.3822C0.48043 57.5698 0.734784 57.6751 1 57.6751H25.214C25.639 59.0215 26.899 60.0003 28.3831 60.0003H31.617C33.1011 60.0003 34.361 59.0215 34.7861 57.6751H59C59.2625 57.671 59.5129 57.5638 59.697 57.3767C59.8812 57.1896 59.9844 56.9375 59.9844 56.675C59.9844 56.4125 59.8812 56.1604 59.697 55.9733C59.5129 55.7862 59.2625 55.679 59 55.6749Z" fill="#C3846F" style="fill:#C3846F;fill:color(display-p3 0.7647 0.5176 0.4353);fill-opacity:1;"/>
</g>
<defs>
<clipPath id="clip0_8236_14661">
<rect width="60" height="60" fill="white" style="fill:white;fill-opacity:1;"/>
</clipPath>
</defs>
</svg>
