<svg width="60" height="60" viewBox="0 0 60 60" fill="none" xmlns="http://www.w3.org/2000/svg">
<g clip-path="url(#clip0_8236_14676)">
<path d="M57.4796 50.9997H54.3746V18.5003C54.3746 16.2916 52.5834 14.5004 50.3747 14.5004H9.62545C7.41674 14.5004 5.62553 16.2916 5.62553 18.5003V50.9997H2.52058C1.51185 50.9997 0.779366 51.9547 1.06186 52.9121C1.7581 55.2784 3.68556 58.9995 8.93796 58.9995H51.0622C56.3146 58.9995 58.242 55.2784 58.9383 52.9121C59.2208 51.9547 58.4883 50.9997 57.4796 50.9997Z" fill="#F1F7F0" style="fill:#F1F7F0;fill:color(display-p3 0.9451 0.9686 0.9412);fill-opacity:1;"/>
<path d="M57.4796 50.9996C58.4883 50.9996 59.2208 51.9546 58.9383 52.9121C58.242 55.2783 56.3146 58.9995 51.0622 58.9995H8.93796C3.68556 58.9995 1.7581 55.2783 1.06186 52.9121C0.779366 51.9546 1.51185 50.9996 2.52058 50.9996H18.3965C19.4403 50.9996 20.4565 51.3446 21.269 51.9909C22.0912 52.6448 23.1109 53.0004 24.1614 52.9996H35.8387C36.8812 52.9996 37.8974 52.6546 38.7099 52.0084C39.5327 51.3546 40.5527 50.999 41.6036 50.9996H57.4796Z" fill="#EBDFD5" style="fill:#EBDFD5;fill:color(display-p3 0.9216 0.8745 0.8353);fill-opacity:1;"/>
<path d="M54.3747 18.5003V50.9997H41.4762C40.4174 50.9997 39.4162 51.3659 38.625 51.9997C37.8162 52.6472 36.81 52.9996 35.7738 52.9996L24.173 52.9994C23.0311 52.9871 22.8293 51.363 23.9291 51.0559C28.9118 49.6646 34.7174 46.8568 39.2862 41.2375C44.7797 34.4805 46.9352 25.5654 45.5537 16.8136C45.362 15.5991 46.2986 14.5005 47.528 14.5005H50.3747C52.5838 14.5004 54.3747 16.2911 54.3747 18.5003Z" fill="#F1F7F0" style="fill:#F1F7F0;fill:color(display-p3 0.9451 0.9686 0.9412);fill-opacity:1;"/>
<path d="M27.1026 52.9997H35.8387C36.8812 52.9997 37.8974 52.6547 38.7099 52.0084C39.5327 51.3547 40.5527 50.9991 41.6036 50.9997C41.6036 50.9997 57.5511 51.0009 57.5863 51.0033C58.5349 51.0676 58.4612 52.4997 57.5104 52.4997H44.3535C43.2786 52.4997 42.2623 52.8697 41.4599 53.5084C40.6474 54.1546 39.6311 54.4996 38.5887 54.4996H27.1026C26.1131 54.4996 26.1081 52.9997 27.1026 52.9997ZM18.4553 52.4997H5.27053C4.2618 52.4997 3.52931 53.4546 3.81181 54.4121C4.16193 55.601 2.62483 56.2006 2.05197 55.2277C1.57923 54.4249 1.26698 53.6096 1.06186 52.9122C0.779366 51.9547 1.51185 50.9997 2.52058 50.9997H18.4553C19.4383 50.9997 19.4538 52.4997 18.4553 52.4997Z" fill="#F1F7F0" style="fill:#F1F7F0;fill:color(display-p3 0.9451 0.9686 0.9412);fill-opacity:1;"/>
<path d="M45.1249 1.00061H15.8754C14.2192 1.00061 12.8755 2.34434 12.8755 4.00055V40.8749C12.8755 42.5311 14.2192 43.8748 15.8754 43.8748H45.1249C46.2299 43.8748 47.1248 42.9798 47.1248 41.8748V3.00057C47.1248 1.89547 46.2299 1.00061 45.1249 1.00061Z" fill="#EBDFD5" style="fill:#EBDFD5;fill:color(display-p3 0.9216 0.8745 0.8353);fill-opacity:1;"/>
<path d="M18.3754 1.00061V43.8748H15.8754C14.2192 43.8748 12.8755 42.5311 12.8755 40.8749V4.00055C12.8755 2.34434 14.2192 1.00061 15.8754 1.00061H18.3754Z" fill="#EBDFD5" style="fill:#EBDFD5;fill:color(display-p3 0.9216 0.8745 0.8353);fill-opacity:1;"/>
<path d="M41.2499 8.12547V17.3753C41.2499 17.6405 41.1446 17.8949 40.957 18.0824C40.7695 18.2699 40.5152 18.3753 40.2499 18.3753H25.2502C24.985 18.3753 24.7307 18.2699 24.5431 18.0824C24.3556 17.8949 24.2502 17.6405 24.2502 17.3753V8.12547C24.2502 7.86026 24.3556 7.60591 24.5431 7.41838C24.7307 7.23084 24.985 7.12549 25.2502 7.12549H40.2499C40.5152 7.12549 40.7695 7.23084 40.957 7.41838C41.1446 7.60591 41.2499 7.86026 41.2499 8.12547Z" fill="#F1F7F0" style="fill:#F1F7F0;fill:color(display-p3 0.9451 0.9686 0.9412);fill-opacity:1;"/>
<path d="M41.25 8.12547V17.3753C41.25 17.6405 41.1446 17.8949 40.9571 18.0824C40.7695 18.2699 40.5152 18.3753 40.25 18.3753H32.8029C31.9215 18.3753 31.4748 17.321 32.0828 16.6831C34.1045 14.5616 34.7766 11.4199 34.1311 8.32446C34.002 7.7056 34.4781 7.12549 35.1103 7.12549H40.2499C40.3812 7.12547 40.5112 7.15132 40.6326 7.20157C40.7539 7.25182 40.8642 7.32547 40.957 7.41833C41.0499 7.51119 41.1236 7.62143 41.1738 7.74276C41.2241 7.86409 41.25 7.99414 41.25 8.12547ZM45.1193 3.51668C45.1193 3.51668 19.4906 3.51843 19.4319 3.5218C18.8519 3.55568 18.3593 3.10594 18.3593 2.52507V1.01673H45.1088C46.8491 1.01673 46.7346 3.51668 45.1193 3.51668ZM18.3593 1.01673V3.21131C18.3589 3.37469 18.3186 3.5355 18.2418 3.67974C18.1651 3.82399 18.0543 3.94729 17.919 4.03892C17.1284 4.57828 16.6091 5.48727 16.6093 6.5165C16.6144 34.4688 16.5962 41.3347 16.6107 43.1339C16.6115 43.2331 16.5926 43.3314 16.5552 43.4232C16.5178 43.5151 16.4626 43.5986 16.3927 43.6689C16.3229 43.7393 16.2398 43.7951 16.1482 43.8332C16.0567 43.8713 15.9585 43.8909 15.8593 43.8908C14.2025 43.8908 12.8594 42.5477 12.8594 40.8909V4.01655C12.8594 2.3597 14.2025 1.0166 15.8593 1.0166L18.3593 1.01673Z" fill="#F1F7F0" style="fill:#F1F7F0;fill:color(display-p3 0.9451 0.9686 0.9412);fill-opacity:1;"/>
<path d="M57.4802 49.9997H41.6035C40.3297 49.9997 39.0809 50.4349 38.0877 51.2257C37.4606 51.7248 36.6619 51.9996 35.8385 51.9996H24.1617C23.3384 51.9996 22.5321 51.7189 21.8914 51.2089C20.9117 50.4292 19.6704 49.9997 18.3967 49.9997H11.2577C10.9925 49.9997 10.7382 50.105 10.5506 50.2926C10.3631 50.4801 10.2577 50.7345 10.2577 50.9997C10.2577 51.2649 10.3631 51.5192 10.5506 51.7068C10.7382 51.8943 10.9925 51.9996 11.2577 51.9996H18.3967C19.2199 51.9996 20.0188 52.2745 20.646 52.7738C21.6392 53.5642 22.8879 53.9996 24.1617 53.9996H35.8385C37.1125 53.9996 38.3536 53.5701 39.3332 52.7904C39.9739 52.2804 40.7802 51.9996 41.6035 51.9996H57.4802C57.8176 51.9996 58.0733 52.3109 57.9795 52.6295C57.2581 55.0793 55.4725 57.9995 51.0617 57.9995H8.93852C4.52785 57.9995 2.74226 55.0793 2.02077 52.6295C1.9269 52.3109 2.18252 51.9996 2.52001 51.9996C5.62495 51.9996 5.38221 52.004 5.48971 51.9894C6.10219 52.0725 6.62543 51.5962 6.62543 50.9997V18.5003C6.62543 16.9587 7.82629 15.6461 9.35938 15.512C9.9095 15.4637 10.3165 14.9787 10.2684 14.4286C10.2202 13.8785 9.73775 13.4725 9.18501 13.5196C6.58556 13.7471 4.62535 15.8883 4.62535 18.5004V49.9998H2.52001C0.839167 49.9998 -0.367435 51.5992 0.102306 53.1946C0.850542 55.7361 2.99363 59.9996 8.93839 59.9996H51.0616C57.0066 59.9996 59.1496 55.7361 59.8977 53.1946C60.3668 51.6017 59.1634 49.9997 57.4802 49.9997ZM50.3747 15.5003C52.0288 15.5003 53.3747 16.8462 53.3747 18.5003V45.3021C53.3747 45.5674 53.48 45.8217 53.6676 46.0092C53.8551 46.1968 54.1095 46.3021 54.3747 46.3021C54.6399 46.3021 54.8942 46.1968 55.0818 46.0092C55.2693 45.8217 55.3746 45.5674 55.3746 45.3021V18.5003C55.3746 15.7433 53.1317 13.5004 50.3747 13.5004C50.1095 13.5004 49.8552 13.6057 49.6676 13.7933C49.4801 13.9808 49.3748 14.2351 49.3748 14.5003C49.3748 14.7656 49.4801 15.0199 49.6676 15.2074C49.8552 15.395 50.1095 15.5003 50.3747 15.5003Z" fill="#C3846F" style="fill:#C3846F;fill:color(display-p3 0.7647 0.5176 0.4353);fill-opacity:1;"/>
<path d="M15.8754 44.8748H45.1249C46.779 44.8748 48.1248 43.5289 48.1248 41.8748V3.00055C48.1248 1.34646 46.779 0.000610352 45.1249 0.000610352H23.8026C23.5374 0.000610352 23.2831 0.105965 23.0955 0.293498C22.908 0.481031 22.8027 0.73538 22.8027 1.00059C22.8027 1.2658 22.908 1.52015 23.0955 1.70769C23.2831 1.89522 23.5374 2.00057 23.8026 2.00057H45.1249C45.6762 2.00057 46.1248 2.44919 46.1248 3.00055V41.8748C46.1248 42.4262 45.6762 42.8748 45.1249 42.8748H15.8754C14.7727 42.8748 13.8755 41.9776 13.8755 40.8748V4.00054C13.8755 2.89781 14.7727 2.00057 15.8754 2.00057H17.3754V38.5765C17.3754 38.8417 17.4807 39.0961 17.6683 39.2836C17.8558 39.4711 18.1102 39.5765 18.3754 39.5765C18.6406 39.5765 18.8949 39.4711 19.0825 39.2836C19.27 39.0961 19.3753 38.8417 19.3753 38.5765V1.00059C19.3753 0.73538 19.27 0.481031 19.0825 0.293498C18.8949 0.105965 18.6406 0.000610352 18.3754 0.000610352H15.8754C13.6698 0.000610352 11.8755 1.79495 11.8755 4.00054V40.8748C11.8755 43.0803 13.6698 44.8748 15.8754 44.8748Z" fill="#C3846F" style="fill:#C3846F;fill:color(display-p3 0.7647 0.5176 0.4353);fill-opacity:1;"/>
<path d="M24.2502 6.12549C23.985 6.12549 23.7307 6.23084 23.5431 6.41838C23.3556 6.60591 23.2502 6.86026 23.2502 7.12547V18.3753C23.2502 18.6405 23.3556 18.8948 23.5431 19.0824C23.7307 19.2699 23.985 19.3752 24.2502 19.3752H41.2499C41.5151 19.3752 41.7695 19.2699 41.957 19.0824C42.1445 18.8948 42.2499 18.6405 42.2499 18.3753V7.12547C42.2499 6.86026 42.1445 6.60591 41.957 6.41838C41.7695 6.23084 41.5151 6.12549 41.2499 6.12549H30.0001C29.7349 6.12549 29.4806 6.23084 29.293 6.41838C29.1055 6.60591 29.0001 6.86026 29.0001 7.12547C29.0001 7.39068 29.1055 7.64503 29.293 7.83256C29.4806 8.0201 29.7349 8.12545 30.0001 8.12545H40.2499V17.3753H25.2502V7.12547C25.2502 6.86026 25.1449 6.60591 24.9573 6.41838C24.7698 6.23084 24.5154 6.12549 24.2502 6.12549Z" fill="#C3846F" style="fill:#C3846F;fill:color(display-p3 0.7647 0.5176 0.4353);fill-opacity:1;"/>
</g>
<defs>
<clipPath id="clip0_8236_14676">
<rect width="60" height="60" fill="white" style="fill:white;fill-opacity:1;"/>
</clipPath>
</defs>
</svg>
