<svg width="15" height="15" viewBox="0 0 15 15" fill="none" xmlns="http://www.w3.org/2000/svg">
<path d="M7.03089 0.826894C7.11545 0.566623 7.48367 0.566624 7.56824 0.826895L9.03225 5.33266C9.07007 5.44906 9.17853 5.52786 9.30092 5.52786H14.0386C14.3122 5.52786 14.426 5.87806 14.2046 6.03891L10.3718 8.82363C10.2728 8.89557 10.2313 9.02308 10.2692 9.13948L11.7332 13.6452C11.8177 13.9055 11.5198 14.1219 11.2984 13.9611L7.46561 11.1764C7.3666 11.1044 7.23252 11.1044 7.13351 11.1764L3.30068 13.9611C3.07928 14.1219 2.78139 13.9055 2.86595 13.6452L4.32997 9.13948C4.36778 9.02308 4.32635 8.89557 4.22734 8.82363L0.394506 6.03891C0.173106 5.87806 0.286892 5.52786 0.560558 5.52786H5.2982C5.42059 5.52786 5.52905 5.44906 5.56687 5.33266L7.03089 0.826894Z" fill="#C3846F" style="fill:#C3846F;fill:color(display-p3 0.7647 0.5176 0.4353);fill-opacity:1;"/>
</svg>
