<svg width="32" height="32" viewBox="0 0 32 32" fill="none" xmlns="http://www.w3.org/2000/svg">
<path d="M3.5 16C3.5 19.3152 4.81696 22.4946 7.16117 24.8388C9.50537 27.183 12.6848 28.5 16 28.5C19.3152 28.5 22.4946 27.183 24.8388 24.8388C27.183 22.4946 28.5 19.3152 28.5 16C28.5 12.6848 27.183 9.50537 24.8388 7.16117C22.4946 4.81696 19.3152 3.5 16 3.5C12.6848 3.5 9.50537 4.81696 7.16117 7.16117C4.81696 9.50537 3.5 12.6848 3.5 16Z" stroke="#90DB90" style="stroke:#90DB90;stroke:color(display-p3 0.5665 0.8579 0.5665);stroke-opacity:1;" stroke-width="2"/>
<path d="M11.625 11V14.125" stroke="#90DB90" style="stroke:#90DB90;stroke:color(display-p3 0.5665 0.8579 0.5665);stroke-opacity:1;" stroke-width="2"/>
<path d="M20.375 11V14.125" stroke="#90DB90" style="stroke:#90DB90;stroke:color(display-p3 0.5665 0.8579 0.5665);stroke-opacity:1;" stroke-width="2"/>
<path d="M20.375 17.25C20.375 18.4103 19.9141 19.5231 19.0936 20.3436C18.2731 21.1641 17.1603 21.625 16 21.625C14.8397 21.625 13.7269 21.1641 12.9064 20.3436C12.0859 19.5231 11.625 18.4103 11.625 17.25" stroke="#90DB90" style="stroke:#90DB90;stroke:color(display-p3 0.5665 0.8579 0.5665);stroke-opacity:1;" stroke-width="2"/>
</svg>
