<svg width="18" height="29" viewBox="0 0 18 29" fill="none" xmlns="http://www.w3.org/2000/svg">
<path d="M16.7971 17.491C17.453 16.8351 17.5467 15.8981 16.9845 14.9611C16.516 14.2115 15.6726 13.8367 14.7356 14.0241C14.3608 14.1178 13.986 14.3052 13.6112 14.5863C10.7065 16.554 6.77102 16.4603 3.86628 14.4926C3.67888 14.3989 3.49147 14.3052 3.30407 14.2115C2.27335 13.743 1.24265 13.9304 0.680445 14.8674C0.024536 15.8044 0.118226 16.8351 0.961537 17.6785C1.14894 17.8659 1.33634 17.9596 1.43004 18.147L1.52375 18.2406C2.83557 19.2714 4.42849 19.9273 6.48992 20.2084L5.2718 21.4265C4.24109 22.4572 3.11668 23.5816 2.08596 24.6123C1.80486 24.8934 1.43004 25.3619 1.43004 26.0179C1.43004 26.8612 1.89856 27.7045 2.74187 28.0793C3.02297 28.2667 3.30407 28.2667 3.58518 28.2667C4.05368 28.2667 4.61589 28.0793 4.99069 27.6108C6.39621 26.2053 7.52064 25.0808 8.64505 23.9564C8.73875 23.8627 8.73874 23.8627 8.73874 23.8627C8.73874 23.8627 8.83245 23.8627 8.83245 23.9564C9.58206 24.7997 10.4254 25.5493 11.175 26.3927C11.5498 26.7675 11.9246 27.1423 12.2994 27.5171C12.7679 27.9856 13.1427 28.173 13.7049 28.173C14.5482 28.2667 15.4852 27.7045 15.86 26.8612C16.2349 26.1116 16.0474 25.1745 15.3915 24.6123C14.4545 23.6753 13.5175 22.6446 12.4868 21.7076L10.8939 20.1147C11.7372 20.021 12.6742 19.8336 13.5175 19.4588C14.923 18.9903 15.9537 18.3343 16.7971 17.491Z" fill="#F79A38" style="fill:#F79A38;fill:color(display-p3 0.9686 0.6039 0.2196);fill-opacity:1;"/>
<path d="M8.73874 14.8674C12.7679 14.8674 16.0474 11.6815 16.0474 7.65239C16.0474 5.68467 15.2978 3.81065 13.8923 2.40513C12.4868 0.999613 10.7065 0.25 8.83245 0.25C4.8033 0.25 1.61745 3.52954 1.52375 7.46499C1.52375 9.43272 2.27336 11.213 3.67888 12.6186C4.9907 14.1178 6.77102 14.8674 8.73874 14.8674ZM6.67732 5.49728C7.23953 4.93507 7.98913 4.65396 8.73874 4.65396C10.4254 4.65396 11.6435 5.96578 11.6435 7.5587C11.6435 9.24532 10.3317 10.4634 8.73874 10.4634C7.05212 10.4634 5.83401 9.15162 5.83401 7.5587C5.83401 6.80909 6.11511 6.05948 6.67732 5.49728Z" fill="#F79A38" style="fill:#F79A38;fill:color(display-p3 0.9686 0.6039 0.2196);fill-opacity:1;"/>
<path d="M16.7971 17.491C17.453 16.8351 17.5467 15.8981 16.9845 14.9611C16.516 14.2115 15.6726 13.8367 14.7356 14.0241C14.3608 14.1178 13.986 14.3052 13.6112 14.5863C10.7065 16.554 6.77102 16.4603 3.86628 14.4926C3.67888 14.3989 3.49147 14.3052 3.30407 14.2115C2.27335 13.743 1.24265 13.9304 0.680445 14.8674C0.024536 15.8044 0.118226 16.8351 0.961537 17.6785C1.14894 17.8659 1.33634 17.9596 1.43004 18.147L1.52375 18.2406C2.83557 19.2714 4.42849 19.9273 6.48992 20.2084L5.2718 21.4265C4.24109 22.4572 3.11668 23.5816 2.08596 24.6123C1.80486 24.8934 1.43004 25.3619 1.43004 26.0179C1.43004 26.8612 1.89856 27.7045 2.74187 28.0793C3.02297 28.2667 3.30407 28.2667 3.58518 28.2667C4.05368 28.2667 4.61589 28.0793 4.99069 27.6108C6.39621 26.2053 7.52064 25.0808 8.64505 23.9564C8.73875 23.8627 8.73874 23.8627 8.73874 23.8627C8.73874 23.8627 8.83245 23.8627 8.83245 23.9564C9.58206 24.7997 10.4254 25.5493 11.175 26.3927C11.5498 26.7675 11.9246 27.1423 12.2994 27.5171C12.7679 27.9856 13.1427 28.173 13.7049 28.173C14.5482 28.2667 15.4852 27.7045 15.86 26.8612C16.2349 26.1116 16.0474 25.1745 15.3915 24.6123C14.4545 23.6753 13.5175 22.6446 12.4868 21.7076L10.8939 20.1147C11.7372 20.021 12.6742 19.8336 13.5175 19.4588C14.923 18.9903 15.9537 18.3343 16.7971 17.491Z" fill="#F79A38" style="fill:#F79A38;fill:color(display-p3 0.9686 0.6039 0.2196);fill-opacity:1;"/>
</svg>
