<svg width="32" height="33" viewBox="0 0 32 33" fill="none" xmlns="http://www.w3.org/2000/svg">
<g clip-path="url(#clip0_2134_7962)">
<path d="M11.273 23.8006H1.56934V1.5H12.3055C13.2913 1.5 14.2368 1.89164 14.9339 2.58875C15.6311 3.28587 16.0227 4.23137 16.0227 5.21724V13.6596" stroke="#566B61" style="stroke:#566B61;stroke:color(display-p3 0.3373 0.4196 0.3804);stroke-opacity:1;" stroke-width="1.71"/>
<path d="M30.4763 16.1575V1.5H19.7402C19.252 1.5 18.7687 1.59615 18.3177 1.78296C17.8667 1.96977 17.4569 2.24358 17.1117 2.58875C16.7665 2.93393 16.4927 3.34372 16.3059 3.79471C16.1191 4.24571 16.0229 4.72909 16.0229 5.21724" stroke="#566B61" style="stroke:#566B61;stroke:color(display-p3 0.3373 0.4196 0.3804);stroke-opacity:1;" stroke-width="1.71"/>
<path d="M15.3757 22.5566C15.3757 24.2138 16.0341 25.8031 17.2059 26.975C18.3777 28.1468 19.967 28.8051 21.6242 28.8051C23.2814 28.8051 24.8708 28.1468 26.0426 26.975C27.2144 25.8031 27.8727 24.2138 27.8727 22.5566C27.8727 20.8994 27.2144 19.3101 26.0426 18.1382C24.8708 16.9664 23.2814 16.3081 21.6242 16.3081C19.967 16.3081 18.3777 16.9664 17.2059 18.1382C16.0341 19.3101 15.3757 20.8994 15.3757 22.5566Z" stroke="#566B61" style="stroke:#566B61;stroke:color(display-p3 0.3373 0.4196 0.3804);stroke-opacity:1;" stroke-width="1.71"/>
<path d="M30.4765 31.4088L26.3103 27.2426" stroke="#566B61" style="stroke:#566B61;stroke:color(display-p3 0.3373 0.4196 0.3804);stroke-opacity:1;" stroke-width="1.71"/>
</g>
<defs>
<clipPath id="clip0_2134_7962">
<rect width="32" height="32" fill="white" style="fill:white;fill-opacity:1;" transform="translate(0 0.5)"/>
</clipPath>
</defs>
</svg>
