<svg width="32" height="32" viewBox="0 0 32 32" fill="none" xmlns="http://www.w3.org/2000/svg">
<path d="M3.5 16C3.5 19.3152 4.81696 22.4946 7.16117 24.8388C9.50537 27.183 12.6848 28.5 16 28.5C19.3152 28.5 22.4946 27.183 24.8388 24.8388C27.183 22.4946 28.5 19.3152 28.5 16C28.5 12.6848 27.183 9.50537 24.8388 7.16117C22.4946 4.81696 19.3152 3.5 16 3.5C12.6848 3.5 9.50537 4.81696 7.16117 7.16117C4.81696 9.50537 3.5 12.6848 3.5 16Z" stroke="#A20808" style="stroke:#A20808;stroke:color(display-p3 0.6364 0.0311 0.0311);stroke-opacity:1;" stroke-width="2"/>
<path d="M12.875 19.75C12.875 20.5788 13.2042 21.3737 13.7903 21.9597C14.3763 22.5458 15.1712 22.875 16 22.875C16.8288 22.875 17.6237 22.5458 18.2097 21.9597C18.7958 21.3737 19.125 20.5788 19.125 19.75C19.125 18.9212 18.7958 18.1263 18.2097 17.5403C17.6237 16.9542 16.8288 16.625 16 16.625C15.1712 16.625 14.3763 16.9542 13.7903 17.5403C13.2042 18.1263 12.875 18.9212 12.875 19.75Z" stroke="#A20808" style="stroke:#A20808;stroke:color(display-p3 0.6364 0.0311 0.0311);stroke-opacity:1;" stroke-width="2"/>
<path d="M13.301 9.95001L9.32471 13.925" stroke="#A20808" style="stroke:#A20808;stroke:color(display-p3 0.6364 0.0311 0.0311);stroke-opacity:1;" stroke-width="2"/>
<path d="M9.32373 9.95001L13.3 13.925" stroke="#A20808" style="stroke:#A20808;stroke:color(display-p3 0.6364 0.0311 0.0311);stroke-opacity:1;" stroke-width="2"/>
<path d="M18.6987 9.95001L22.6762 13.9263" stroke="#A20808" style="stroke:#A20808;stroke:color(display-p3 0.6364 0.0311 0.0311);stroke-opacity:1;" stroke-width="2"/>
<path d="M22.6747 9.95001L18.6997 13.925" stroke="#A20808" style="stroke:#A20808;stroke:color(display-p3 0.6364 0.0311 0.0311);stroke-opacity:1;" stroke-width="2"/>
</svg>
