<svg width="28" height="25" viewBox="0 0 28 25" fill="none" xmlns="http://www.w3.org/2000/svg">
<path d="M19.7248 0C17.3758 0 15.1213 1.10354 13.6498 2.84741C12.1783 1.10354 9.92378 0 7.57478 0C3.41678 0 0.14978 3.297 0.14978 7.49319C0.14978 12.6431 4.73978 16.8392 11.6923 23.2153L13.6498 25L15.6073 23.2016C22.5598 16.8392 27.1498 12.6431 27.1498 7.49319C27.1498 3.297 23.8828 0 19.7248 0Z" fill="white" style="fill:white;fill-opacity:1;"/>
<path d="M18.3684 2.73145C16.5268 2.73145 14.7593 4.55501 13.6057 5.85644C12.452 4.55501 10.6845 2.73145 8.84289 2.73145C5.58304 2.73145 3.02173 5.19197 3.02173 8.32354C3.02173 12.1668 6.62026 15.2984 12.071 20.0568L13.6057 21.3887L15.1403 20.0466C20.591 15.2984 24.1896 12.1668 24.1896 8.32354C24.1896 5.19197 21.6283 2.73145 18.3684 2.73145Z" fill="#C3846F" style="fill:#C3846F;fill:color(display-p3 0.7647 0.5176 0.4353);fill-opacity:1;"/>
</svg>
