<svg width="28" height="25" viewBox="0 0 28 25" fill="none" xmlns="http://www.w3.org/2000/svg">
<path d="M19.7248 0C17.3758 0 15.1213 1.10354 13.6498 2.84741C12.1783 1.10354 9.92378 0 7.57478 0C3.41678 0 0.14978 3.297 0.14978 7.49319C0.14978 12.6431 4.73978 16.8392 11.6923 23.2153L13.6498 25L15.6073 23.2016C22.5598 16.8392 27.1498 12.6431 27.1498 7.49319C27.1498 3.297 23.8828 0 19.7248 0Z" fill="white" style="fill:white;fill-opacity:1;"/>
<path d="M18.5998 2.46094C16.6858 2.46094 14.8488 3.32726 13.6498 4.69627C12.4508 3.32726 10.6138 2.46094 8.69978 2.46094C5.31178 2.46094 2.64978 5.04922 2.64978 8.34339C2.64978 12.3862 6.38978 15.6804 12.0548 20.6859L13.6498 22.087L15.2448 20.6752C20.9098 15.6804 24.6498 12.3862 24.6498 8.34339C24.6498 5.04922 21.9878 2.46094 18.5998 2.46094ZM13.7598 19.0922L13.6498 19.1992L13.5398 19.0922C8.30378 14.4825 4.84978 11.4344 4.84978 8.34339C4.84978 6.20432 6.49978 4.60001 8.69978 4.60001C10.3938 4.60001 12.0438 5.65886 12.6268 7.12412L13.6553 9.12412L14.6838 7.12412C15.2558 5.65886 16.9058 4.60001 18.5998 4.60001C20.7998 4.60001 22.4498 6.20432 22.4498 8.34339C22.4498 11.4344 18.9958 14.4825 13.7598 19.0922Z" fill="#C3846F" style="fill:#C3846F;fill:color(display-p3 0.7647 0.5176 0.4353);fill-opacity:1;"/>
</svg>
