<svg width="13" height="3" viewBox="0 0 13 3" fill="none" xmlns="http://www.w3.org/2000/svg">
<path d="M1.452 2.794C1.02667 2.794 0.674667 2.662 0.396 2.398C0.132 2.11933 0 1.78933 0 1.408C0 1.012 0.132 0.682 0.396 0.418C0.674667 0.139333 1.02667 0 1.452 0C1.87733 0 2.222 0.139333 2.486 0.418C2.75 0.682 2.882 1.012 2.882 1.408C2.882 1.78933 2.75 2.11933 2.486 2.398C2.222 2.662 1.87733 2.794 1.452 2.794Z" fill="#B4664C" style="fill:#B4664C;fill:color(display-p3 0.7059 0.4000 0.2980);fill-opacity:1;"/>
<path d="M6.17856 2.794C5.75323 2.794 5.40123 2.662 5.12256 2.398C4.85856 2.11933 4.72656 1.78933 4.72656 1.408C4.72656 1.012 4.85856 0.682 5.12256 0.418C5.40123 0.139333 5.75323 0 6.17856 0C6.6039 0 6.94856 0.139333 7.21256 0.418C7.47656 0.682 7.60856 1.012 7.60856 1.408C7.60856 1.78933 7.47656 2.11933 7.21256 2.398C6.94856 2.662 6.6039 2.794 6.17856 2.794Z" fill="#B4664C" style="fill:#B4664C;fill:color(display-p3 0.7059 0.4000 0.2980);fill-opacity:1;"/>
<path d="M10.9051 2.794C10.4798 2.794 10.1278 2.662 9.84912 2.398C9.58512 2.11933 9.45312 1.78933 9.45312 1.408C9.45312 1.012 9.58512 0.682 9.84912 0.418C10.1278 0.139333 10.4798 0 10.9051 0C11.3305 0 11.6751 0.139333 11.9391 0.418C12.2031 0.682 12.3351 1.012 12.3351 1.408C12.3351 1.78933 12.2031 2.11933 11.9391 2.398C11.6751 2.662 11.3305 2.794 10.9051 2.794Z" fill="#B4664C" style="fill:#B4664C;fill:color(display-p3 0.7059 0.4000 0.2980);fill-opacity:1;"/>
</svg>
