<svg width="17" height="16" viewBox="0 0 17 16" fill="none" xmlns="http://www.w3.org/2000/svg">
<path d="M11.2135 14C12.5396 14 13.8114 13.4205 14.749 12.3891C15.6867 11.3576 16.2135 9.95869 16.2135 8.5C16.2135 7.04131 15.6867 5.64236 14.749 4.61091C13.8114 3.57946 12.5396 3 11.2135 3" stroke="#566B61" style="stroke:#566B61;stroke:color(display-p3 0.3373 0.4196 0.3804);stroke-opacity:1;"/>
<path d="M11.2135 11C11.7439 11 12.2526 10.7366 12.6277 10.2678C13.0028 9.79893 13.2135 9.16304 13.2135 8.5C13.2135 7.83696 13.0028 7.20107 12.6277 6.73223C12.2526 6.26339 11.7439 6 11.2135 6" stroke="#566B61" style="stroke:#566B61;stroke:color(display-p3 0.3373 0.4196 0.3804);stroke-opacity:1;"/>
<path d="M9.2135 1L3.6135 4.88889H1.2135V11.1111H3.6135L9.2135 15V1Z" stroke="#566B61" style="stroke:#566B61;stroke:color(display-p3 0.3373 0.4196 0.3804);stroke-opacity:1;"/>
</svg>
