<svg width="25" height="24" viewBox="0 0 25 24" fill="none" xmlns="http://www.w3.org/2000/svg">
<path d="M9.29529 16.9564H2.74829V1.91035H9.9919C10.6571 1.91035 11.295 2.17459 11.7653 2.64493C12.2357 3.11527 12.4999 3.7532 12.4999 4.41836V10.1144" stroke="#566B61" style="stroke:#566B61;stroke:color(display-p3 0.3373 0.4196 0.3804);stroke-opacity:1;" stroke-width="1.06259"/>
<path d="M22.2516 11.7997V1.91035H15.008C14.6787 1.91035 14.3525 1.97523 14.0482 2.10127C13.7439 2.2273 13.4675 2.41204 13.2346 2.64493C13.0017 2.87782 12.8169 3.1543 12.6909 3.45859C12.5649 3.76287 12.5 4.089 12.5 4.41836" stroke="#566B61" style="stroke:#566B61;stroke:color(display-p3 0.3373 0.4196 0.3804);stroke-opacity:1;" stroke-width="1.06259"/>
<path d="M12.064 16.1172C12.064 17.2353 12.5081 18.3076 13.2988 19.0982C14.0894 19.8888 15.1617 20.333 16.2798 20.333C17.3979 20.333 18.4702 19.8888 19.2608 19.0982C20.0515 18.3076 20.4956 17.2353 20.4956 16.1172C20.4956 14.999 20.0515 13.9267 19.2608 13.1361C18.4702 12.3455 17.3979 11.9013 16.2798 11.9013C15.1617 11.9013 14.0894 12.3455 13.2988 13.1361C12.5081 13.9267 12.064 14.999 12.064 16.1172Z" stroke="#566B61" style="stroke:#566B61;stroke:color(display-p3 0.3373 0.4196 0.3804);stroke-opacity:1;" stroke-width="1.06259"/>
<path d="M22.2513 22.0896L19.4404 19.2787" stroke="#566B61" style="stroke:#566B61;stroke:color(display-p3 0.3373 0.4196 0.3804);stroke-opacity:1;" stroke-width="1.06259"/>
</svg>
