<svg xmlns="http://www.w3.org/2000/svg" version="1.1" xmlns:xlink="http://www.w3.org/1999/xlink" xmlns:svgjs="http://svgjs.dev/svgjs" width="31" height="32"><svg width="31" height="32" viewBox="0 0 31 32" fill="none" xmlns="http://www.w3.org/2000/svg">
<rect width="31" height="32" fill="#F6F6F6" style="fill:#F6F6F6;fill:color(display-p3 0.9647 0.9647 0.9647);fill-opacity:1;"></rect>
<path d="M4.42638 21.7601L5.41829 21.479L5.4216 21.4754C5.76191 21.3903 6.10222 21.3159 6.44253 21.2521C6.78326 21.1775 7.12399 21.1083 7.46473 21.0444C8.16461 20.9272 8.8691 20.8314 9.5782 20.7568C10.2965 20.6822 11.0102 20.6503 11.7193 20.6609C11.8943 20.6609 12.1061 20.6663 12.3547 20.6769C12.6034 20.6876 12.8566 20.7142 13.1145 20.7568C13.3723 20.7994 13.6163 20.858 13.8466 20.9325C14.086 20.9964 14.2794 21.0923 14.4267 21.2201L15.1865 22.2586C15.1865 22.2692 15.1819 22.2746 15.1727 22.2746L14.2472 21.971C13.0132 21.7367 11.8114 21.6408 10.6418 21.6834C9.4815 21.7154 8.28893 21.8698 7.06413 22.1467C6.06956 22.3704 5.0842 22.6473 4.10804 22.9775C3.1411 23.3077 2.17415 23.6485 1.2072 24H1.19339L1 23.5047C1.17497 23.2917 1.4098 23.0947 1.70449 22.9136C1.99918 22.7219 2.30768 22.5568 2.63 22.4183C2.96152 22.2692 3.28844 22.1414 3.61076 22.0349C3.92364 21.9243 4.19552 21.8327 4.42638 21.7601Z" fill="#1F3326" style="fill:#1F3326;fill:color(display-p3 0.1216 0.2000 0.1490);fill-opacity:1;"></path>
<path d="M22.7052 21.1234C23.037 21.1828 23.3688 21.2472 23.7006 21.3165L24.6959 21.5244V21.5096L25.624 21.777C25.8571 21.8463 26.1351 21.9354 26.4579 22.0444L27.4129 22.4009C27.7267 22.5296 28.0271 22.6831 28.314 22.8614C28.601 23.0297 28.8296 23.2129 29 23.411L28.8117 23.8715H28.7982C27.8567 23.5447 26.9152 23.2278 25.9737 22.9208C25.0232 22.6138 24.0637 22.3563 23.0953 22.1483C21.9027 21.8909 20.7415 21.7473 19.6117 21.7176C18.4729 21.6779 17.3027 21.7671 16.1011 21.9849L15.1999 22.2672C15.191 22.2672 15.1865 22.2622 15.1865 22.2523L15.9263 21.2868C16.0697 21.1679 16.258 21.0788 16.4912 21.0194C16.7153 20.9501 16.953 20.8956 17.204 20.856C17.4551 20.8164 17.7017 20.7916 17.9438 20.7817C18.1859 20.7718 18.3922 20.7668 18.5625 20.7668C19.253 20.7569 19.9479 20.7867 20.6473 20.856C21.3378 20.9253 22.0237 21.0144 22.7052 21.1234Z" fill="#1F3326" style="fill:#1F3326;fill:color(display-p3 0.1216 0.2000 0.1490);fill-opacity:1;"></path>
<path d="M21.3115 10.3387L21.4272 10.1975C21.4503 10.1765 21.512 10.1085 21.6122 9.9934C21.7125 9.86783 21.832 9.72657 21.9708 9.56961C22.1173 9.40218 22.2677 9.22953 22.4219 9.05164C22.5762 8.86328 22.7188 8.69063 22.8499 8.53367C22.9887 8.37671 23.1044 8.25114 23.1969 8.15696C23.2894 8.05232 23.3396 8 23.3473 8C23.3704 8 23.4244 8.03139 23.5092 8.09418C23.6017 8.1465 23.6943 8.20928 23.7868 8.28253C23.8794 8.35578 23.9565 8.42903 24.0182 8.50227C24.0798 8.57552 24.0953 8.62261 24.0644 8.64354C23.8794 8.8005 23.6943 8.97316 23.5092 9.16151C23.3319 9.3394 23.1545 9.52252 22.9771 9.71087L22.8615 9.83644C23.0003 9.79458 23.1391 9.75796 23.2779 9.72657C23.8871 9.56961 24.5001 9.44927 25.117 9.36556C25.2635 9.34463 25.4409 9.32893 25.6491 9.31847C25.8573 9.29754 26.0693 9.29231 26.2853 9.30277C26.5089 9.30277 26.7209 9.3237 26.9214 9.36556C27.1296 9.40741 27.2993 9.48066 27.4304 9.5853L28.0781 10.4957V10.5114L27.28 10.3544C27.1258 10.3126 26.9561 10.2916 26.7711 10.2916C26.6631 10.2812 26.5513 10.2812 26.4356 10.2916C26.32 10.2916 26.2043 10.2916 26.0886 10.2916C25.8033 10.3126 25.518 10.3387 25.2327 10.3701C24.9551 10.391 24.6736 10.4172 24.3883 10.4486C23.8562 10.5323 23.3396 10.6265 22.8383 10.7311C22.6533 10.7834 22.4605 10.841 22.26 10.9038C22.0595 10.9561 21.8706 11.0241 21.6932 11.1078L20.7216 12.2379H20.71C20.1317 12.9286 19.5611 13.614 18.9981 14.2941C18.4352 14.9743 17.853 15.644 17.2515 16.3032L16.8814 16.7741C17.2361 16.795 17.5947 16.7898 17.9571 16.7584C18.3273 16.727 18.6935 16.6852 19.056 16.6328C19.5264 16.5701 19.989 16.4968 20.444 16.4131C20.9067 16.3189 21.3693 16.209 21.832 16.0835C22.1867 15.9893 22.58 15.8742 23.0118 15.7382C23.4437 15.5917 23.8755 15.4242 24.3073 15.2359C24.7469 15.0371 25.1633 14.8121 25.5566 14.561C25.9575 14.2994 26.2968 14.0064 26.5744 13.682C26.6053 13.6506 26.64 13.6087 26.6785 13.5564C26.7248 13.4936 26.7672 13.4308 26.8058 13.3681C26.8443 13.3053 26.8713 13.2425 26.8867 13.1797C26.9099 13.1065 26.9137 13.0384 26.8983 12.9757C26.8675 12.8815 26.7981 12.8135 26.6901 12.7716C26.5821 12.7193 26.4511 12.6879 26.2968 12.6774C26.1503 12.667 25.9884 12.667 25.811 12.6774C25.6414 12.6774 25.4756 12.6879 25.3136 12.7088C25.1517 12.7297 25.0052 12.7559 24.8741 12.7873C24.743 12.8082 24.6466 12.8239 24.5849 12.8344C24.3999 12.8762 24.2148 12.9181 24.0297 12.96C23.8447 13.0018 23.6557 13.0489 23.4629 13.1012C23.2008 13.164 22.9386 13.232 22.6764 13.3053C22.4142 13.3681 22.152 13.4413 21.8899 13.525C21.5428 13.6192 21.1958 13.7238 20.8488 13.8389C20.5095 13.9436 20.1741 14.0639 19.8425 14.1999L19.8309 14.1843L19.8541 13.7134C19.9312 13.6611 20.0083 13.6192 20.0854 13.5878C20.1625 13.5459 20.2435 13.5041 20.3283 13.4622C20.5365 13.3576 20.7563 13.2477 20.9876 13.1326C21.2652 13.007 21.8012 12.7925 22.5954 12.4891C23.3897 12.1752 24.1994 11.9763 25.0245 11.8926C25.8496 11.7985 26.3007 11.7618 26.3778 11.7828C26.4009 11.7932 26.4202 11.7985 26.4356 11.7985C26.4588 11.7985 26.478 11.8037 26.4935 11.8141C26.6091 11.9711 26.7287 12.1124 26.852 12.2379C26.9754 12.3635 27.1027 12.4891 27.2337 12.6146C27.2954 12.6774 27.3687 12.7611 27.4535 12.8658C27.5461 12.96 27.6 13.0646 27.6155 13.1797C27.6309 13.2634 27.627 13.3471 27.6039 13.4308C27.5885 13.5146 27.5615 13.593 27.5229 13.6663C27.4612 13.8023 27.3841 13.9331 27.2916 14.0587C27.199 14.1843 27.1104 14.3046 27.0255 14.4197C26.6323 14.8696 26.1696 15.2777 25.6375 15.644C25.1132 15.9998 24.5502 16.3189 23.9488 16.6014C23.3473 16.884 22.7188 17.1299 22.0634 17.3392C21.4156 17.5484 20.7717 17.7211 20.1317 17.8571C19.4917 17.9932 18.8709 18.0978 18.2694 18.1711C17.6757 18.2443 17.1282 18.2862 16.6269 18.2966C16.5884 18.2966 16.5344 18.3123 16.465 18.3437C16.3956 18.3646 16.3532 18.3489 16.3378 18.2966C16.3223 18.2234 16.2953 18.0978 16.2568 17.9199C16.2182 17.742 16.1797 17.5589 16.1411 17.3706C16.1026 17.1717 16.0679 16.9939 16.037 16.8369C16.0062 16.6695 15.9946 16.5648 16.0023 16.523C16.0023 16.5125 16.0563 16.4445 16.1642 16.3189C16.2722 16.1934 16.4033 16.0364 16.5575 15.848C16.7195 15.6597 16.893 15.4609 17.078 15.2516C17.2631 15.0318 17.4366 14.8278 17.5985 14.6394C17.7682 14.4406 17.9108 14.2732 18.0265 14.1372C18.1499 13.9907 18.227 13.9017 18.2579 13.8703C18.5817 13.5041 18.9017 13.1378 19.2179 12.7716C19.5418 12.3949 19.8656 12.0182 20.1895 11.6415L20.2011 11.6258L20.1664 11.6415C19.7037 11.8403 19.241 12.0601 18.7784 12.3007C18.3234 12.5414 17.8723 12.8082 17.425 13.1012C17.2477 13.2163 17.0665 13.3367 16.8814 13.4622C16.704 13.5878 16.5344 13.7238 16.3725 13.8703H16.3609L16.199 13.3994C16.3069 13.2216 16.4419 13.0541 16.6038 12.8972C16.7734 12.7298 16.9508 12.578 17.1359 12.442C17.3286 12.2955 17.5176 12.1647 17.7026 12.0496C17.8954 11.924 18.0728 11.8141 18.2347 11.72C18.7591 11.4165 19.2912 11.1444 19.8309 10.9038C20.3168 10.6945 20.8103 10.5061 21.3115 10.3387Z" fill="#1F3326" style="fill:#1F3326;fill:color(display-p3 0.1216 0.2000 0.1490);fill-opacity:1;"></path>
<path d="M2.33577 21.7258L3.18183 19.8676L4.1336 20.8323L2.33577 21.7258Z" fill="#1F3326" style="fill:#1F3326;fill:color(display-p3 0.1216 0.2000 0.1490);fill-opacity:1;"></path>
<path d="M15.1776 8.20792C15.0486 8.33876 14.9712 8.41235 14.9454 8.42871L3.18338 19.8746L4.13331 20.8302L7.928 17.3585L17.1255 8.10979C16.7041 8.87847 16.2827 9.65533 15.8613 10.4404C15.4399 11.2254 15.0228 12.0104 14.6101 12.7955L13.6942 14.5373H13.7071C13.6641 14.6027 13.591 14.7335 13.4878 14.9298L13.1266 15.6167C12.9976 15.8784 12.86 16.1564 12.7138 16.4508C12.5762 16.7288 12.4472 16.9905 12.3268 17.2358C12.2064 17.4812 12.1032 17.6938 12.0172 17.8737C11.9398 18.0536 11.9011 18.1599 11.9011 18.1926C11.8925 18.2744 11.9011 18.397 11.9269 18.5606C11.9613 18.7078 12 18.8632 12.043 19.0267C12.086 19.1739 12.1333 19.3129 12.1849 19.4438C12.2365 19.5746 12.2838 19.6564 12.3268 19.6891C12.3526 19.7382 12.3698 19.7545 12.3784 19.7382L13.2556 17.8246C13.5652 17.2358 13.8748 16.6552 14.1844 16.0828C14.5026 15.494 14.8164 14.9134 15.126 14.341L16.029 12.7464C16.4934 11.9614 16.9621 11.2172 17.4351 10.514C17.9167 9.79435 18.4112 9.09926 18.9186 8.42871C18.953 8.37964 18.9401 8.28969 18.8799 8.15885C18.8283 8.01166 18.7595 7.86446 18.6735 7.71727C18.5961 7.55372 18.5144 7.40653 18.4284 7.27569C18.3424 7.14485 18.2908 7.06307 18.2736 7.03036L18.1188 6.8341C18.0414 6.71962 17.9597 6.60513 17.8737 6.49065C17.7877 6.35981 17.706 6.24532 17.6286 6.14719C17.5512 6.04906 17.4996 6 17.4738 6C17.4652 6 17.4007 6.05724 17.2803 6.17173C17.1599 6.28621 17.0094 6.43341 16.8288 6.61331C16.6482 6.77686 16.4504 6.96494 16.2354 7.17756L15.642 7.7418C15.4614 7.92171 15.3066 8.07708 15.1776 8.20792Z" fill="#1F3326" style="fill:#1F3326;fill:color(display-p3 0.1216 0.2000 0.1490);fill-opacity:1;"></path>
</svg><style>@media (prefers-color-scheme: light) { :root { filter: none; } }
@media (prefers-color-scheme: dark) { :root { filter: none; } }
</style></svg>